<?xml version="1.0" encoding="utf-8"?><svg viewBox="0 0 2000 853.6" xmlns="http://www.w3.org/2000/svg" xmlns:xlink="http://www.w3.org/1999/xlink"><style>:root>svg{display:none}:root>svg:target{display:block}</style><svg clip-rule="evenodd" fill-rule="evenodd" image-rendering="optimizeQuality" shape-rendering="geometricPrecision" text-rendering="geometricPrecision" viewBox="0 0 11216.09 4775.7" id="2gis" xmlns="http://www.w3.org/2000/svg"><g fill-rule="nonzero"><path d="M4775.84 2387.87c0-293.75-55.66-573.93-152.69-833.81-25.67 855.4-895.11 1517.68-1405.56 1955.95h1277.69c178.6-334.64 280.56-716.41 280.56-1122.14zM3852.17 504.36C3447.63 189.4 2940.41 0 2387.97 0 1069.14 0 0 1069.14 0 2387.87 0 3706.59 1069.14 4775.7 2387.97 4775.7c603.91 0 1153.8-225.95 1574.32-595.72H2233.48l-5.27-507.69c1041.67-905.55 1680.23-1517.96 1680.23-2109.49 0-219.84-83.74-497.26-460.58-497.26-298.4 0-586.26 172.85-533.94 895.11h-607.14C2154.95 1123.23 2610.35 458.4 3479.18 458.4c134.7 0 259.3 16.08 372.99 45.96zM6990.65 1650.41h564.82c19.31-429.6-125.46-1110.38-1057.15-1110.38-685.57 0-1182.83 410.43-1182.83 1264.87 0 115.87 4.79 714.47 4.79 1086.18 0 926.99 642.16 1129.69 1182.84 1129.69 323.46 0 791.72-72.45 1008.93-308.98V2234.54H6449.98v535.88h473.15v651.74c-357.29 120.66-1009.03 168.97-1009.03-651.74V1804.9c0-574.5 265.56-772.41 559.98-772.41 304.19 0 516.57 154.49 516.57 617.92zm4201.34 1433.74c24.1-1322.67-1491.68-883.44-1477.3-1622.02 4.8-260.63 173.8-429.64 449.05-429.64 294.46 0 468.13 173.8 463.33 627.64h555.19c14.52-410.42-82.03-1110.38-999.21-1110.38-569.7 0-1037.93 280.05-1047.65 902.76-24.11 1269.56 1501.4 854.44 1477.29 1622.05-9.72 313.77-236.66 453.74-492.46 453.74-299.26 0-540.68-173.79-492.37-695.16h-560.12c-62.72 690.37 241.46 1182.84 1047.69 1182.84 680.65 0 1066.83-376.64 1076.56-931.83zm-2550.38 888.27h-569.57V593.17h569.57zm0 0h-569.57V593.17h569.57z"/></g></svg><svg viewBox="0 0 39 32" id="arrow-left" xmlns="http://www.w3.org/2000/svg"><path opacity=".1" fill-rule="evenodd" clip-rule="evenodd" d="M18.121.879a3 3 0 010 4.242L7.242 16l10.879 10.879a3 3 0 11-4.243 4.242L2.293 19.536a5 5 0 010-7.072L13.878.88a3 3 0 014.243 0z"/><path opacity=".1" fill-rule="evenodd" clip-rule="evenodd" d="M36.293.879a3 3 0 010 4.242L25.414 16l10.879 10.879a3 3 0 11-4.243 4.242L20.465 19.536a5 5 0 010-7.072L32.05.88a3 3 0 014.243 0z"/></svg><svg viewBox="0 0 39 32" id="arrow-right" xmlns="http://www.w3.org/2000/svg"><g clip-path="url(#aca)" fill-rule="evenodd" clip-rule="evenodd"><path opacity=".1" d="M20.879 31.121a3 3 0 010-4.242L31.758 16 20.879 5.121A3 3 0 1125.122.88l11.585 11.585a5 5 0 010 7.071L25.122 31.122a3 3 0 01-4.243 0z"/><path opacity=".1" d="M2.707 31.121a3 3 0 010-4.242L13.586 16 2.707 5.121A3 3 0 016.95.88l11.585 11.585a5 5 0 010 7.071L6.95 31.122a3 3 0 01-4.243 0z"/></g><defs><clipPath id="aca"><path transform="rotate(-180 19.5 16)" d="M0 0h39v32H0z"/></clipPath></defs></svg><svg viewBox="0 0 24 24" id="bloq" xmlns="http://www.w3.org/2000/svg"><path fill-rule="evenodd" d="M12.79 17c4.215-1.632 2.418-4.423 2.418-4.423A4 4 0 1121 9c0 3.577-3.091 8-8.21 8zm-10 0c4.215-1.632 2.418-4.423 2.418-4.423A4 4 0 1111 9c0 3.577-3.091 8-8.21 8z" data-original="#4b7f9c"/></svg><svg viewBox="0 0 21 14" id="burger" xmlns="http://www.w3.org/2000/svg"><path d="M20.25 13.5H0v-2.25h20.25v2.25zm0-5.625H0v-2.25h20.25v2.25zm0-5.625H0V0h20.25v2.25z"/></svg><svg viewBox="0 0 40 40" id="city" xmlns="http://www.w3.org/2000/svg"><path d="M30.173 14.586C30.173 20.433 19.587 36 19.587 36S9 20.433 9 14.587C9 8.74 13.74 4 19.587 4c5.846 0 10.586 4.74 10.586 10.586z"/><circle cx="19.575" cy="14.346" r="4.812"/></svg><svg viewBox="0 0 55.668 55.668" id="clock" xmlns="http://www.w3.org/2000/svg"><path d="M27.833 0C12.487 0 0 12.486 0 27.834s12.487 27.834 27.833 27.834c15.349 0 27.834-12.486 27.834-27.834S43.182 0 27.833 0zm0 51.957c-13.301 0-24.122-10.821-24.122-24.123S14.533 3.711 27.833 3.711c13.303 0 24.123 10.821 24.123 24.123S41.137 51.957 27.833 51.957z" data-original="#010002"/><path d="M41.618 25.819H29.689V10.046a1.856 1.856 0 00-1.855-1.856 1.856 1.856 0 00-1.854 1.856v19.483h15.638a1.856 1.856 0 000-3.71z" data-original="#010002"/></svg><svg viewBox="0 0 24 24" id="close" xmlns="http://www.w3.org/2000/svg"><path fill-rule="evenodd" d="M5.293 5.293a1 1 0 011.414 0L12 10.586l5.293-5.293a1 1 0 111.414 1.414L13.414 12l5.293 5.293a1 1 0 01-1.414 1.414L12 13.414l-5.293 5.293a1 1 0 01-1.414-1.414L10.586 12 5.293 6.707a1 1 0 010-1.414z" clip-rule="evenodd" data-original="#fff"/></svg><svg viewBox="0 0 512 512" id="doc" xmlns="http://www.w3.org/2000/svg"><path d="M386 16H156c-22.056 0-40 17.944-40 40v120l-10 30 10 30v220c0 22.056 17.944 40 40 40h280c22.056 0 40-17.944 40-40V106l-70-20z" data-original="#fbf3f3"/><path d="M386 106h90l-90-90z" data-original="#ece6f2"/><path d="M256 106h-80c-5.523 0-10-4.477-10-10s4.477-10 10-10h80c5.523 0 10 4.477 10 10s-4.477 10-10 10zm80 40H176c-5.523 0-10-4.477-10-10s4.477-10 10-10h160c5.522 0 10 4.477 10 10s-4.478 10-10 10zm0 40H176c-5.523 0-10-4.477-10-10s4.477-10 10-10h160c5.522 0 10 4.477 10 10s-4.478 10-10 10z" data-original="#d3cbe4"/><path d="M391 236H116l-80-30v165.667C36 401.626 60.374 426 90.334 426h300.667c19.299 0 35-15.701 35-35V271C426 251.701 410.299 236 391 236z" data-original="#80aaff"/><path d="M116 236H66c-16.569 0-30-13.431-30-30 0-16.569 13.431-30 30-30h50z" data-original="#6680ff"/><path d="M101 386H86c-5.523 0-10-4.478-10-10v-90c0-5.522 4.477-10 10-10h15c30.327 0 55 24.673 55 55s-24.673 55-55 55zm-5-20h5c19.299 0 35-15.701 35-35s-15.701-35-35-35h-5zm105 20c-19.299 0-35-15.701-35-35v-40c0-19.299 15.701-35 35-35s35 15.701 35 35v40c0 19.299-15.701 35-35 35zm0-90c-8.271 0-15 6.728-15 15v40c0 8.272 6.729 15 15 15s15-6.728 15-15v-40c0-8.272-6.729-15-15-15zm100 90c-30.327 0-55-24.673-55-55s24.673-55 55-55c5.522 0 10 4.478 10 10s-4.478 10-10 10c-19.299 0-35 15.701-35 35s15.701 35 35 35c5.522 0 10 4.478 10 10s-4.478 10-10 10zm75.006.003a10.004 10.004 0 01-9.144-5.941l-40-90c-2.243-5.047.029-10.957 5.076-13.199 5.052-2.244 10.957.031 13.199 5.076l40 90c2.243 5.047-.029 10.957-5.076 13.199a9.96 9.96 0 01-4.055.865z" data-original="#fbf3f3"/><path d="M331.939 385.138c-5.047-2.242-7.319-8.152-5.076-13.199l40-90c2.242-5.046 8.148-7.322 13.199-5.076 5.047 2.242 7.319 8.152 5.076 13.199l-40 90c-2.228 5.012-8.119 7.334-13.199 5.076z" data-original="#fbf3f3"/></svg><svg viewBox="0 0 1024 1024" id="email" xmlns="http://www.w3.org/2000/svg"><path d="M512 722.4c-8.4 0-16.7-.6-25-1.7 2.7.4 5.3.7 8 1.1-16.6-2.3-32.7-6.7-48.2-13.1l7.2 3c-11-4.7-21.6-10.3-31.5-17-2.6-1.7-5.1-3.5-7.6-5.3-5.4-4 3.2 2.6 1.4 1.1-1.2-1-2.4-1.9-3.6-2.9-4.6-3.8-9-7.8-13.1-12-4.2-4.2-8.2-8.6-12-13.1-.8-1-1.7-2-2.5-3.1-3.2-3.9 5.1 6.8.7.8-1.7-2.3-3.4-4.6-5-7-6.8-10.1-12.6-20.8-17.4-32l3 7.2c-6.5-15.4-10.9-31.6-13.1-48.2.4 2.7.7 5.3 1.1 8-2.4-18.4-1.7-37.2-1.7-55.7v-64.8c0-10.6.3-21.2 1.7-31.7-.4 2.7-.7 5.3-1.1 8 2.3-16.6 6.7-32.7 13.1-48.2l-3 7.2c4.7-11 10.3-21.6 17-31.5 1.7-2.6 3.5-5.1 5.3-7.6 4-5.4-2.6 3.2-1.1 1.4 1-1.2 1.9-2.4 2.9-3.6 3.8-4.6 7.8-9 12-13.1s8.6-8.2 13.1-12c1-.8 2-1.7 3.1-2.5 3.9-3.2-6.8 5.1-.8.7 2.3-1.7 4.6-3.4 7-5 10.1-6.8 20.8-12.6 32-17.4l-7.2 3c15.4-6.5 31.6-10.9 48.2-13.1-2.7.4-5.3.7-8 1.1 16.6-2.2 33.4-2.2 50.1 0-2.7-.4-5.3-.7-8-1.1 16.6 2.3 32.7 6.7 48.2 13.1l-7.2-3c11 4.7 21.6 10.3 31.5 17 2.6 1.7 5.1 3.5 7.6 5.3 5.4 4-3.2-2.6-1.4-1.1 1.2 1 2.4 1.9 3.6 2.9 4.6 3.8 9 7.8 13.1 12 4.2 4.2 8.2 8.6 12 13.1.8 1 1.7 2 2.5 3.1 3.2 3.9-5.1-6.8-.7-.8 1.7 2.3 3.4 4.6 5 7 6.8 10.1 12.6 20.8 17.4 32l-3-7.2c6.5 15.4 10.9 31.6 13.1 48.2-.4-2.7-.7-5.3-1.1-8 2.4 18.4 1.7 37.2 1.7 55.7v64.8c0 10.6-.3 21.2-1.7 31.7.4-2.7.7-5.3 1.1-8-2.3 16.6-6.7 32.7-13.1 48.2l3-7.2c-4.7 11-10.3 21.6-17 31.5-1.7 2.6-3.5 5.1-5.3 7.6-4 5.4 2.6-3.2 1.1-1.4-1 1.2-1.9 2.4-2.9 3.6-3.8 4.6-7.8 9-12 13.1s-8.6 8.2-13.1 12c-1 .8-2 1.7-3.1 2.5-3.9 3.2 6.8-5.1.8-.7-2.3 1.7-4.6 3.4-7 5-10.1 6.8-20.8 12.6-32 17.4l7.2-3c-15.4 6.5-31.6 10.9-48.2 13.1 2.7-.4 5.3-.7 8-1.1-8.4 1.1-16.7 1.7-25.1 1.7-15.7.1-30.7 13.8-30 30s13.2 30.1 30 30c60-.2 119-25.5 160-69.6 38.1-41.1 59.3-95.1 59.4-151.2v-94c0-20.6-1.8-41.1-6.9-61.1-7.3-28.8-20.9-55.7-39.1-79.1-17.9-23.2-40.3-43-65.9-57.4-27.5-15.5-57.3-24.2-88.6-27.3-60-6-120.3 15.7-165.1 55.3-45 39.7-71.4 98.3-73 158.1-.8 30.2-.1 60.5-.1 90.8 0 17.3.5 34.2 3 51.4 4.1 28.3 14.8 56.2 30 80.4 31.4 49.9 83 87.5 141.1 99.2 14.8 3 30.1 4.8 45.2 4.8 15.7 0 30.7-13.8 30-30-.7-16.5-13.2-30.3-30-30.3z" data-original="#4B7F9C"/><path d="M687.2 852.7c-9.6 5-19.4 9.6-29.4 13.8l7.2-3c-33.7 14.2-69.2 23.9-105.4 28.8 2.7-.4 5.3-.7 8-1.1-36.9 4.9-74.2 4.9-111.1 0 2.7.4 5.3.7 8 1.1-36.2-4.9-71.5-14.6-105.2-28.7l7.2 3c-19.1-8.1-37.6-17.6-55.2-28.5-8.8-5.4-17.4-11.1-25.7-17.2-2-1.4-3.9-2.8-5.8-4.3-1.1-.8-2.1-1.6-3.1-2.4-4.3-3.2 6.1 4.8 1.9 1.5-4.1-3.3-8.2-6.6-12.2-10-15.5-13.1-30-27.4-43.4-42.7-3.3-3.8-6.6-7.6-9.7-11.5-1.4-1.7-2.8-3.4-4.1-5.1-1.4-1.7-4.5-6 1.5 1.9-1.1-1.4-2.1-2.8-3.2-4.2-6-8.1-11.8-16.3-17.2-24.8-12.6-19.7-23.5-40.4-32.7-61.9l3 7.2c-14.2-33.6-23.8-69-28.7-105.2.4 2.7.7 5.3 1.1 8-4.9-36.9-4.9-74.3 0-111.2-.4 2.7-.7 5.3-1.1 8 4.9-36.2 14.6-71.5 28.7-105.2l-3 7.2c8.1-19.1 17.6-37.6 28.5-55.2 5.4-8.8 11.1-17.4 17.2-25.7 1.4-2 2.8-3.9 4.3-5.8.8-1.1 1.6-2.1 2.4-3.1 3.2-4.3-4.8 6.1-1.5 1.9 3.3-4.1 6.6-8.2 10-12.2 13.1-15.5 27.4-30 42.7-43.4 3.8-3.3 7.6-6.6 11.5-9.7 1.7-1.4 3.4-2.8 5.1-4.1 1.7-1.4 6-4.5-1.9 1.5 1.4-1.1 2.8-2.1 4.2-3.2 8.1-6 16.3-11.8 24.8-17.2 19.7-12.6 40.4-23.5 61.9-32.7l-7.2 3c33.6-14.2 69-23.8 105.2-28.7-2.7.4-5.3.7-8 1.1 36.9-4.9 74.3-4.9 111.2 0-2.7-.4-5.3-.7-8-1.1 36.2 4.9 71.5 14.6 105.2 28.7l-7.2-3c19.1 8.1 37.6 17.6 55.2 28.5 8.8 5.4 17.4 11.1 25.7 17.2 2 1.4 3.9 2.8 5.8 4.3 1.1.8 2.1 1.6 3.1 2.4 4.3 3.2-6.1-4.8-1.9-1.5 4.1 3.3 8.2 6.6 12.2 10 15.5 13.1 30 27.4 43.4 42.7 3.3 3.8 6.6 7.6 9.7 11.5 1.4 1.7 2.8 3.4 4.1 5.1 1.4 1.7 4.5 6-1.5-1.9 1.1 1.4 2.1 2.8 3.2 4.2 6 8.1 11.8 16.3 17.2 24.8 12.6 19.7 23.5 40.4 32.7 61.9l-3-7.2c14.2 33.6 23.8 69 28.7 105.2-.4-2.7-.7-5.3-1.1-8 4.7 35.1 3.7 70.4 3.7 105.8 0 7.6 0 15-1 22.6.4-2.7.7-5.3 1.1-8-1.4 9.8-4 19.2-7.8 28.4l3-7.2c-2.8 6.4-6.1 12.6-9.9 18.5-1 1.4-2 2.9-3 4.3-2.9 4.1 5.3-6.6.7-.9-2.2 2.7-4.6 5.2-7 7.7s-5 4.8-7.7 7c-5.6 4.7 5-3.5.9-.7-1.4 1-2.8 2-4.3 3-5.8 3.9-12 7.2-18.5 9.9l7.2-3c-9.1 3.8-18.6 6.4-28.4 7.8 2.7-.4 5.3-.7 8-1.1-10.1 1.3-20.2 1.3-30.4 0 2.7.4 5.3.7 8 1.1-9.8-1.4-19.2-4-28.4-7.8l7.2 3c-6.4-2.8-12.6-6.1-18.5-9.9-1.4-1-2.9-2-4.3-3-4.1-2.9 6.6 5.3.9.7-2.7-2.2-5.2-4.6-7.7-7s-4.8-5-7-7.7c-4.7-5.6 3.5 5 .7.9-1-1.4-2-2.8-3-4.3-3.9-5.8-7.2-12-9.9-18.5l3 7.2c-3.8-9.1-6.4-18.6-7.8-28.4.4 2.7.7 5.3 1.1 8-.7-5-1-10.1-1-15.2-.1-15.7-13.7-30.7-30-30-16.2.7-30.1 13.2-30 30 .3 51.4 29 101 74.8 125 45.3 23.7 102.6 22.4 145.2-6.7 40-27.3 63.6-71.5 63.6-120 0-26.5.8-53.2-.7-79.7-2.6-45.2-11.6-90.2-27.9-132.5-16.7-43.5-39.5-83-68.2-119.6C804.1 166.9 728 115.5 644.4 89.1c-87.3-27.6-184.3-26.9-271.2 2.1-41.8 13.9-81.8 33.8-117.5 59.6-37.5 27-69.8 58.8-97.9 95.5-54.4 71.2-84.9 159.5-88.5 248.9-3.6 90 21.1 181.4 70.3 256.9 23.9 36.7 53 70.3 86.7 98.4 35.8 29.9 75.1 53.6 118.2 71.6 92.3 38.5 198.7 43.3 294.3 14.6 27.1-8.1 53.5-19 78.7-32 14-7.2 19.2-27.9 10.8-41-9.2-14.4-26.2-18.7-41.1-11z" data-original="#4B7F9C"/></svg><svg viewBox="0 0 20 26" id="filial_metka" xmlns="http://www.w3.org/2000/svg"><path fill-rule="evenodd" clip-rule="evenodd" d="M10.436 4.79a.833.833 0 00-1.27.71v11.667a.833.833 0 101.667 0v-4.92l3.984-2.144c.146-.079.301-.162.425-.244.126-.084.338-.24.467-.508.153-.32.164-.69.03-1.017A1.286 1.286 0 0015.3 7.8a5.674 5.674 0 00-.41-.268L10.436 4.79zm3.312 3.995l-2.915 1.57V6.99l2.915 1.794z"/><path d="M6.827 14.963a.833.833 0 10-.321-1.635c-1.542.303-2.907.81-3.91 1.486-.983.663-1.763 1.599-1.763 2.77 0 1.567 1.372 2.709 2.932 3.411 1.639.737 3.844 1.172 6.235 1.172 2.39 0 4.596-.435 6.234-1.172 1.56-.702 2.932-1.844 2.932-3.412 0-1.17-.78-2.105-1.763-2.77-1.003-.675-2.367-1.182-3.91-1.485a.833.833 0 00-.32 1.635c1.4.276 2.536.719 3.298 1.233.78.526 1.029 1.02 1.029 1.387 0 .504-.494 1.237-1.95 1.892-1.377.62-3.34 1.025-5.55 1.025-2.212 0-4.173-.405-5.55-1.025-1.457-.655-1.95-1.388-1.95-1.892 0-.366.248-.861 1.029-1.387.761-.514 1.897-.957 3.298-1.233z"/></svg><svg viewBox="0 0 451 451.454" id="filial_time" xmlns="http://www.w3.org/2000/svg"><path d="M218.25 232.977c3.902 3.902 10.227 3.898 14.129-.004a10.001 10.001 0 002.926-7.059V73.707a9.99 9.99 0 00-9.993-9.992c-5.515 0-9.988 4.472-9.988 9.992v128.09l-54.715-54.715c-3.968-3.832-10.293-3.723-14.125.246a9.982 9.982 0 000 13.879zm0 0" data-original="#4B7F9C"/><path d="M385.063 66.164A224.452 224.452 0 00225.313 0c-5.516 0-9.989 4.473-9.989 9.992v25.442c0 5.52 4.473 9.992 9.988 9.992a9.99 9.99 0 009.993-9.992V20.219c105.62 5.078 190.625 90.082 195.703 195.703h-15.215a9.99 9.99 0 00-9.992 9.992c0 5.516 4.472 9.988 9.992 9.988h15.215c-5.078 105.625-90.082 190.63-195.703 195.703v-15.214c0-5.516-4.473-9.989-9.993-9.989-5.515 0-9.988 4.473-9.988 9.989v15.214C109.7 426.531 24.695 341.527 19.621 235.902h15.215c5.516 0 9.988-4.472 9.988-9.988 0-5.52-4.472-9.992-9.988-9.992H19.62A204.41 204.41 0 0179.69 80.289c3.832-3.969 3.723-10.293-.246-14.125a9.995 9.995 0 00-13.882 0c-87.762 88.688-87.016 231.734 1.671 319.5 88.036 87.113 229.793 87.113 317.829 0 88.218-88.23 88.218-231.27 0-319.5zm0 0" data-original="#4B7F9C"/></svg><svg viewBox="0 0 357 512" id="fire" xmlns="http://www.w3.org/2000/svg"><path d="M178.164 512C79.922 512 0 431.633 0 332.848c0-43.051 14.664-72.32 31.648-106.211 9.426-18.82 19.176-38.278 28.18-63.106l9.367-25.832c13.813 3.383 9.133 2.239 22.942 5.621l-3.633 27.239c-2.973 22.257 1.09 47.504 11.14 69.261 4.262 9.23 9.407 17.422 15.118 24.23-1.98-36.14 1.722-70.976 11.074-103.937 9.805-34.55 25.535-66.406 46.758-94.687 26.414-35.192 56.75-58.176 70.816-60.067L283.277 0 256.45 29.977c-12.187 13.613-18.898 31.187-18.898 49.484 0 35.367 21.695 60.465 46.812 89.527 16.106 18.63 34.356 39.746 48.18 65.688 16.004 30.031 23.781 62.14 23.781 98.172 0 98.785-79.923 179.152-178.161 179.152zM63.894 228.5c-1.937 3.926-3.843 7.73-5.699 11.438-15.925 31.78-28.5 56.882-28.5 92.91 0 82.41 66.602 149.457 148.47 149.457 81.862 0 148.468-67.047 148.468-149.457 0-69.551-32.91-107.621-64.735-144.442-27.793-32.152-54.043-62.523-54.043-108.945 0-3.703.196-7.383.586-11.031-8.375 9.476-17.168 20.965-25.48 34.523-23.465 38.281-48.637 102.52-35.274 191.184l3.907 25.945-24.254-10.008c-22.274-9.195-41.684-29.722-54.656-57.804a162.358 162.358 0 01-8.79-23.77z"/></svg><svg viewBox="0 0 512.001 512.001" id="hand" xmlns="http://www.w3.org/2000/svg"><path d="M92.748 261.286c0 21.189-1.845 41.52-3.799 63.045-2.127 23.437-4.327 47.672-4.327 75.105 0 30.56 13.05 58.787 23.997 77.084 6.33 10.581 12.529 18.86 16.614 23.943 8.434 10.495 10.05 10.882 11.92 11.331a7.502 7.502 0 006.194-13.336c-6.41-6.018-43.726-51.002-43.726-99.021 0-21.527 1.404-41.199 3.045-60.102.039.059.076.122.115.18 6.475 9.553 16.068 14.81 27.021 14.81h.097c5.821-.016 20.472-1.885 29.444-18.86a44.077 44.077 0 002.428 4.05c6.476 9.554 16.068 14.81 27.021 14.81h.096c9.451-.027 17.73-3.889 23.978-11.007 5.557 3.332 12.482 5.714 20.873 6.617 6.198.667 12.811 1.03 19.514 1.137-9.712 7.52-18.181 16.759-25.101 27.507-12.477 19.377-18.825 42.302-17.875 64.551a7.5 7.5 0 0014.986-.64c-.818-19.182 4.687-38.996 15.5-55.791 10.133-15.737 24.067-27.731 40.571-35.027 7.614 14.509 23.027 24.11 39.884 24.11 4.143 0 7.5-3.358 7.5-7.5s-3.357-7.5-7.5-7.5c-8.634 0-18.679-4.429-24.67-12.942a114.098 114.098 0 007.421-1.632 7.5 7.5 0 005.392-9.134 7.497 7.497 0 00-9.134-5.392c-16.636 4.286-43.318 5.659-64.884 3.337-12.305-1.324-24.819-8.353-25.04-21.07-.116-6.708 4.043-15.153 16.149-16.882 31.42-4.488 64.034-13.737 85.862-20.707 10.646-3.4 22.004 1.373 26.999 11.349l24.054 48.04a7.5 7.5 0 0013.412-6.715l-24.054-48.04c-7.812-15.601-8.864-35.401-8.864-52.712V56.391C343.864 4.066 315.488 0 306.791 0c-8.696 0-37.072 4.066-37.072 56.391 0 4.142 3.357 7.5 7.5 7.5s7.5-3.358 7.5-7.5c0-25.918 8.251-41.391 22.072-41.391s22.073 15.473 22.073 41.391v171.891c0 10.781.406 22.49 2.417 33.958-7.372-2.499-15.567-2.709-23.526-.168a685.424 685.424 0 01-23.04 6.916l.004-182.597c0-4.142-3.357-7.5-7.5-7.5s-7.5 3.358-7.5 7.5v82.812c-6.041-4.026-13.599-6.104-22.105-6.113-22.246.063-36.232 13.926-36.859 36.291-6.004-4.021-13.504-6.125-21.985-6.125h-.145c-22.194.063-36.168 13.859-36.857 36.13-6.041-4.04-13.599-6.132-22.133-6.13-22.81.064-36.942 14.638-36.887 38.03zM151.737 298c.073 25.837-8.106 41.285-21.878 41.324h-.055c-5.991 0-10.904-2.767-14.604-8.226-4.834-7.132-7.411-18.534-7.452-32.953v-36.88c-.054-18.967 11.896-22.981 21.93-23.01h.099c4.608 0 11.031.907 15.673 5.185 4.149 3.824 6.264 9.779 6.287 17.68zm37.111 41.324h-.055c-5.991 0-10.904-2.767-14.604-8.226-4.834-7.132-7.411-18.534-7.452-32.953v-66.88c-.053-18.967 11.896-22.981 21.93-23.01 4.604-.007 11.097.876 15.772 5.185 4.149 3.824 6.264 9.779 6.287 17.68v30.398a7.5 7.5 0 007.5 7.5c4.031 0 7.31-3.183 7.483-7.171.01-.07.017-.169.017-.329v-60.419c-.053-18.966 11.896-22.981 21.93-23.009h.099c4.608 0 11.032.907 15.674 5.185 4.149 3.824 6.264 9.779 6.286 17.68V273c-14.468 3.67-30.095 7.035-45.381 9.218-17.374 2.481-29.31 15.637-29.026 31.992.112 6.476 2.209 13.186 6.452 19.042-3.446 4.014-7.77 6.058-12.912 6.072zm192.003 14.586a7.501 7.501 0 00-3.35 10.064c2.521 5.034 3.088 10.702 1.598 15.961-3.751 13.244-13.833 36.064-30.883 60.396-12.562 17.928-33.061 42.487-59.373 57.672a7.501 7.501 0 007.498 12.992c49.932-28.816 87.513-92.802 97.189-126.972 2.514-8.869 1.584-18.375-2.615-26.765a7.5 7.5 0 00-10.064-3.348zm38.528-200.484a7.5 7.5 0 007.5-7.5V28.529c0-4.142-3.357-7.5-7.5-7.5s-7.5 3.358-7.5 7.5v117.397a7.5 7.5 0 007.5 7.5z" data-original="#000000"/><circle cx="419.379" cy="186.426" r="8" data-original="#000000"/></svg><svg viewBox="0 0 682.667 682.667" id="happy" xmlns="http://www.w3.org/2000/svg"><defs><clipPath id="aoa" clipPathUnits="userSpaceOnUse"><path d="M0 512h512V0H0z" data-original="#000000"/></clipPath></defs><g clip-path="url(#aoa)" transform="matrix(1.33333 0 0 -1.33333 0 682.667)" stroke-width="15" stroke-linecap="round" stroke-linejoin="round" stroke-miterlimit="10"><path d="M449.41 457.5L12.179 257.103a8.016 8.016 0 01-3.947-10.628l33.399-72.871a8.018 8.018 0 0110.628-3.948L489.49 370.054a8.016 8.016 0 013.946 10.627l-33.399 72.872a8.016 8.016 0 01-10.627 3.947zM23.532 143.785V39.576a8.017 8.017 0 018.016-8.017h448.903a8.017 8.017 0 018.017 8.017v216.435l-168.339-.021" data-original="#000000"/><path d="M188.285 373.09l-76.072 12.139c-19.738 3.15-37.444-12.498-36.745-32.474l2.295-65.593M187.07 337.261c-7.378 16.099-.31 35.13 15.789 42.509l29.149 13.359c16.098 7.379 35.13.31 42.508-15.788m-87.446-40.08l-64.37 5.769M246.583 399.81l40.463 65.551c10.499 17.009 33.912 20.207 48.588 6.637l48.191-44.557M274.517 377.34l37.65 52.529M472.435 288.096h32.064M432.355 304.128l72.145 32.064" data-original="#000000"/></g></svg><svg viewBox="0 0 48 48" fill-rule="evenodd" id="map" xmlns="http://www.w3.org/2000/svg"><path d="M24 3.5C14.893 3.5 7.5 10.893 7.5 20c0 3.971 2.485 8.737 5.566 12.985 4.409 6.08 9.922 11.122 9.922 11.122a1.5 1.5 0 002.024 0s5.513-5.042 9.922-11.122C38.015 28.737 40.5 23.971 40.5 20c0-9.107-7.393-16.5-16.5-16.5zm0 3c7.451 0 13.5 6.049 13.5 13.5 0 3.453-2.315 7.53-4.994 11.224-3.1 4.273-6.767 8.012-8.506 9.706-1.739-1.694-5.406-5.433-8.506-9.706C12.815 27.53 10.5 23.453 10.5 20c0-7.451 6.049-13.5 13.5-13.5zm0 5c-4.691 0-8.5 3.809-8.5 8.5s3.809 8.5 8.5 8.5 8.5-3.809 8.5-8.5-3.809-8.5-8.5-8.5zm0 3c3.036 0 5.5 2.464 5.5 5.5s-2.464 5.5-5.5 5.5-5.5-2.464-5.5-5.5 2.464-5.5 5.5-5.5z" data-original="#000000"/></svg><svg viewBox="0 0 32 32" class="aqhovered-paths" id="menu" xmlns="http://www.w3.org/2000/svg"><path d="M29 16a1 1 0 01-1 1H10a1 1 0 010-2h18a1 1 0 011 1zm0 10a1 1 0 01-1 1H10a1 1 0 110-2h18a1 1 0 011 1zM9 6a1 1 0 011-1h18a1 1 0 010 2H10a1 1 0 01-1-1zM5 8c-1.103 0-2-.897-2-2s.897-2 2-2 2 .897 2 2-.897 2-2 2zm0 10c-1.103 0-2-.897-2-2s.897-2 2-2 2 .897 2 2-.897 2-2 2zm0 10c-1.103 0-2-.897-2-2s.897-2 2-2 2 .897 2 2-.897 2-2 2z" data-original="#fff" class="aqhovered-path"/></svg><svg viewBox="0 0 48 48" id="metka" xmlns="http://www.w3.org/2000/svg"><path d="M7 38.5c0 3.78 8.81 5.5 17 5.5s17-1.72 17-5.5c0-3.24-6.43-4.87-12.78-5.34l.08-.16a4.51 4.51 0 012.16-2.53A14 14 0 1014.3 7.9a14 14 0 003.25 22.53A4.49 4.49 0 0119.7 33l.08.21C13.49 33.63 7 35.26 7 38.5zm11.47-9.85A12 12 0 0124 6h.5a12 12 0 015 22.63 6.54 6.54 0 00-3.12 3.63l-1.93 5.39a.52.52 0 01-1 0l-1.93-5.38a6.48 6.48 0 00-3.05-3.62zm2 6.46l1.15 3.22a2.52 2.52 0 004.74 0l1.15-3.21C35.16 35.61 39 37.54 39 38.5c0 1.19-5.29 3.5-15 3.5S9 39.69 9 38.5c0-.9 3.47-2.87 11.48-3.39z" data-original="#4B7F9C"/><path d="M24 23a5 5 0 10-5-5 5 5 0 005 5zm0-8a3 3 0 11-3 3 3 3 0 013-3z" data-original="#4B7F9C"/></svg><svg viewBox="0 0 520 520" id="ok" xmlns="http://www.w3.org/2000/svg"><path d="M239.987 460.841a10 10 0 01-7.343-3.213L34.657 243.463A10 10 0 0142 226.675h95.3a10.006 10.006 0 017.548 3.439l66.168 76.124c7.151-15.286 20.994-40.738 45.286-71.752 35.912-45.85 102.71-113.281 216.994-174.153a10 10 0 0110.85 16.712c-.436.341-44.5 35.041-95.212 98.6-46.672 58.49-108.714 154.13-139.243 277.6a10 10 0 01-9.707 7.6z" data-name="6-Check" data-original="#4B7F9C"/></svg><svg viewBox="0 0 520 520" id="ok-r" xmlns="http://www.w3.org/2000/svg"><path d="M239.987 460.841a10 10 0 01-7.343-3.213L34.657 243.463A10 10 0 0142 226.675h95.3a10.006 10.006 0 017.548 3.439l66.168 76.124c7.151-15.286 20.994-40.738 45.286-71.752 35.912-45.85 102.71-113.281 216.994-174.153a10 10 0 0110.85 16.712c-.436.341-44.5 35.041-95.212 98.6-46.672 58.49-108.714 154.13-139.243 277.6a10 10 0 01-9.707 7.6z" data-name="6-Check" data-original="#e03638"/></svg><svg viewBox="0 0 32 32" id="pdf" xmlns="http://www.w3.org/2000/svg"><path d="M29.828 6.414l-3.242-3.242A3.975 3.975 0 0023.757 2H14c-1.654 0-3 1.346-3 3v22c0 1.654 1.346 3 3 3h14c1.654 0 3-1.346 3-3V9.242a4.022 4.022 0 00-1.172-2.828z" data-original="#d3e4ed"/><rect width="24" height="16" x="1" y="10" rx="3" data-original="#e03638"/><path d="M8 14H6a1 1 0 00-1 1v6a1 1 0 102 0v-1h1c1.103 0 2-.897 2-2v-2c0-1.103-.897-2-2-2zm-1 4v-2h1v2H7zm6-4h-1a1 1 0 00-1 1v6a1 1 0 001 1h1c1.654 0 3-1.346 3-3v-2c0-1.654-1.346-3-3-3zm1 5c0 .552-.449 1-1 1v-4c.551 0 1 .448 1 1zm6-2h-1v-1h1a1 1 0 100-2h-2a1 1 0 00-1 1v6a1 1 0 102 0v-2h1a1 1 0 100-2zm5-8h5.976a4.015 4.015 0 00-1.148-2.586l-3.242-3.242A3.96 3.96 0 0024 2.024V8a1 1 0 001 1z" data-original="#ebf6fd"/></svg><svg viewBox="0 0 443.375 443.375" id="phone" xmlns="http://www.w3.org/2000/svg"><path d="M433.892 331.975c-16-15.3-33.1-29.6-51-42.7-4.3-2.8-26.2-17.1-36.1-21.3-11.5-6.7-25.3-8.3-38-4.3-11.7 3.4-15.8 8.5-26.9 21.3-5.3 6.6-10.2 12.2-10.5 12.6l-1.3 1.1c-5.3 2.8-17.9 0-34.8-8.5-15.6-8-30-18.2-42.7-30.3-12.6-11-23.8-23.6-33.1-37.5-8.4-12.8-13.8-27.4-15.8-42.7.1-3 1.7-6.3 3.4-8.5 2.8-4.2 6.3-7.9 10.2-11.1 16.4-13.2 22.8-19.2 25.4-30.3 2.7-13.3.1-27.2-7.3-38.6a331.53 331.53 0 00-64-82.1c-3.6-3-7.8-5.2-12.4-6.4-7.3-2.7-15.2-3.4-22.8-1.9-13.2 4.9-25.4 12.1-36.1 21.3-12.2 8.9-23.1 19.5-32.2 31.6-10.9 18.1-8.1 34.8 1.7 60.8 13.8 37.4 31.8 73.2 53.8 106.5 3 5.1 6.2 10.2 10.7 16.4l10.9 14.1c35.9 47.9 79.1 89.9 128 124.4 66.3 43.6 113.5 61.7 113.5 61.7 8.1 3.5 16.8 5.5 25.6 5.8h4.7c14.5-.8 28.3-6.3 39.5-15.6 17.8-14.5 32.4-32.6 42.7-53.1 6.1-14.1 4.1-30.4-5.1-42.7zm-15 34.2c-8.8 16.8-20.8 31.7-35.4 43.7-7.8 6.8-17.6 10.8-27.9 11.3-7.3.6-14.7-.7-21.3-3.8 0 0-52.6-19.8-110.9-60.2-46.4-33.2-87.3-73.5-121.4-119.3l-10.9-14.3c-3.2-4.7-6.2-9.6-9.8-15.4-21.3-31.4-38.6-65.2-51.8-100.7-9.6-27.1-8.1-34.3-3-43.3 7.8-9.4 16.7-17.8 26.7-25 8.6-7.4 18.2-13.4 28.6-17.9 4.4-.4 8.7.3 12.8 1.9 1.6.6 3 1.5 4.3 2.6 23.1 22 41.7 47.9 58.7 74.9 4.4 7 6.8 15 6 23.3 0 4.1-1.6 7.1-17.7 19-3.9 2.8-7.7 5.7-11.1 9.2 0 0-11.9 10.1-11.5 27.5 1.9 19.3 8.4 37.9 19 54.2 10.3 15.8 22.6 30.2 36.7 42.7 14.2 13.4 30.8 23.5 47.6 33.5 15.3 9.1 33 13.4 50.3 9.2 5.2-2 8.7-5.3 9.4-6.2 2.6-2.8 8.1-9.2 12.6-14.7 10.9-13.4 11.5-13.7 16.6-15.1 7-2.5 14.8-1.9 21.3 1.7 6.8 3.6 22.6 13.7 33.7 21.3 16.2 11.7 31.7 24.2 46.5 37.5 4.8 6.5 5.6 15.2 1.9 22.4z" data-original="#4B7F9C"/></svg><svg viewBox="0 0 109.126 109.126" id="play" xmlns="http://www.w3.org/2000/svg"><path d="M98.901 47.663L18.197 1.068a7.972 7.972 0 00-7.972 0 7.974 7.974 0 00-3.982 6.903v93.188a7.964 7.964 0 007.968 7.967 7.948 7.948 0 003.983-1.067l80.704-46.594a7.965 7.965 0 003.984-6.9 7.96 7.96 0 00-3.981-6.902z" data-original="#000000"/></svg><svg viewBox="0 0 32 32" id="plus" xmlns="http://www.w3.org/2000/svg"><path d="M25.955 15H17V6.045a1 1 0 10-2 0V15H6.045a1 1 0 100 2H15v8.955a1 1 0 102 0V17h8.955a1 1 0 100-2z" data-original="#000000"/></svg><svg viewBox="0 0 32 32" id="plus-p" xmlns="http://www.w3.org/2000/svg"><path d="M25.955 15H17V6.045a1 1 0 10-2 0V15H6.045a1 1 0 100 2H15v8.955a1 1 0 102 0V17h8.955a1 1 0 100-2z" data-original="#000000"/></svg><svg viewBox="0 0 512 512" id="rul" xmlns="http://www.w3.org/2000/svg"><circle cx="256" cy="271" r="15" opacity=".3" data-original="#1e2137"/><path d="M256 0C115.042 0 0 115.049 0 256c0 140.961 115.049 256 256 256 140.96 0 256-115.049 256-256C512 115.042 396.951 0 256 0zm0 61c97.323 0 178.219 71.668 192.692 165h-52.019c-32.982 0-64.318-13.235-85.973-36.311-29.6-31.546-79.797-31.556-109.4-.001C179.645 212.765 148.309 226 115.326 226H63.308C77.781 132.668 158.677 61 256 61zm0 255c-24.812 0-45-20.186-45-45s20.188-45 45-45c24.814 0 45 20.186 45 45s-20.186 45-45 45zM74.42 327.097C91.59 320.361 103.988 316 121 316c54.688 0 97.219 48.734 88.981 103.49h-.035a89.694 89.694 0 01-7.105 24.145c-58.759-16.67-106.31-60.262-128.421-116.538zm234.751 116.534a89.464 89.464 0 01-7.117-24.141h-.035c-9.599-63.805 49.301-116.452 110.354-100.936 6.436 1.636 14.49 4.34 25.206 8.544-22.109 56.271-69.655 99.861-128.408 116.533z" opacity=".3" data-original="#1e2137"/></svg><svg viewBox="0 0 44 44" id="up" xmlns="http://www.w3.org/2000/svg"><g clip-path="url(#baa)"><path d="M43.46 31.669L23.396 9.7A1.813 1.813 0 0022 9.178a1.812 1.812 0 00-1.394.523L.539 31.67a1.85 1.85 0 000 2.611 1.838 1.838 0 002.604 0l18.858-20.645L40.857 34.28a1.838 1.838 0 002.604 0 1.85 1.85 0 000-2.611z"/></g><defs><clipPath id="baa"><path d="M0 0h44v44H0z"/></clipPath></defs></svg><svg viewBox="0 0 512 512" id="wts" xmlns="http://www.w3.org/2000/svg"><path d="M439.277 72.723C392.38 25.824 330.04 0 263.711 0h-.023c-32.805.004-64.774 6.355-95.012 18.883-30.242 12.527-57.336 30.64-80.535 53.84-46.895 46.894-72.72 109.246-72.72 175.566 0 39.55 9.544 78.856 27.626 113.875L1.313 481.391c-2.942 8.41-.86 17.55 5.445 23.851C11.168 509.656 16.973 512 22.94 512c2.559 0 5.145-.43 7.668-1.313l119.227-41.73c35.02 18.082 74.324 27.625 113.875 27.625 66.32 0 128.668-25.828 175.566-72.723C486.172 376.965 512 314.613 512 248.293c0-66.324-25.824-128.676-72.723-175.57zm-21.234 329.902c-41.223 41.227-96.035 63.926-154.332 63.926-35.664 0-71.094-8.82-102.461-25.516-5.687-3.023-12.41-3.543-18.445-1.43l-108.32 37.91 37.913-108.32c2.114-6.043 1.59-12.765-1.433-18.449-16.692-31.36-25.516-66.789-25.516-102.457 0-58.297 22.703-113.11 63.926-154.332 41.219-41.219 96.023-63.922 154.316-63.93h.02c58.3 0 113.11 22.703 154.332 63.93 41.227 41.223 63.93 96.031 63.93 154.332 0 58.3-22.703 113.113-63.93 154.336zm0 0" data-original="#000000"/><path d="M355.984 270.469c-11.421-11.422-30.007-11.422-41.43 0l-12.491 12.492c-31.02-16.902-56.122-42.004-73.028-73.024l12.492-12.492c11.426-11.422 11.426-30.007 0-41.43l-33.664-33.663c-11.422-11.422-30.008-11.422-41.43 0l-26.93 26.93c-15.425 15.425-16.194 41.945-2.167 74.675 12.18 28.418 34.469 59.652 62.762 87.945 28.293 28.293 59.527 50.582 87.945 62.762 15.55 6.664 29.695 9.988 41.918 9.988 13.504 0 24.66-4.058 32.758-12.156l26.93-26.934v.004c5.535-5.535 8.581-12.89 8.581-20.714 0-7.829-3.046-15.184-8.582-20.715zm-14.5 80.793c-4.402 4.402-17.941 5.945-41.609-4.196-24.992-10.71-52.887-30.742-78.543-56.398s-45.684-53.547-56.394-78.54c-10.145-23.667-8.602-37.21-4.2-41.612l26.414-26.414 32.625 32.628-15.636 15.641c-7.07 7.07-8.778 17.793-4.243 26.684 20.559 40.312 52.735 72.488 93.047 93.047 8.895 4.535 19.618 2.832 26.688-4.243l15.637-15.636 32.628 32.629zm0 0" data-original="#000000"/></svg><svg viewBox="0 0 377 90.9" id="yandex" xmlns="http://www.w3.org/2000/svg"><path d="M218.2 90.9c7.2 0 13.1-3.4 17.3-9.7l.8 8.4h14.2V0h-15.3v32.4c-3.8-5.8-9.6-8.9-16.3-8.9-14.8 0-25.2 12.5-25.2 34.2 0 21.3 10.1 33.2 24.5 33.2zm94.4-5.6V72.8c-4.8 3.2-12.8 6.1-20.3 6.1-11.2 0-15.5-5.3-16.1-16.1h37v-8.2c0-22.6-9.9-31.1-25.3-31.1-18.7 0-27.6 14.3-27.6 33.9 0 22.6 11.1 33.5 30.7 33.5 9.8 0 17-2.5 21.6-5.6zM147.3 43.1c2.9-3.5 7.3-6.4 12.9-6.4 5.4 0 7.8 2.3 7.8 7.2v45.8h15.3V42.3c0-12.9-5.1-18.6-17.7-18.6-9.1 0-14.6 3.4-17.7 6.4h-.8l-.4-5.4h-15v64.9H147zm-27.9 2.3c0-15.7-8-21.7-24.3-21.7-10.1 0-18.2 4.3-22.8 7.6v13.3c4.9-4 12.4-8.6 21-8.6 7.3 0 10.7 2.6 10.7 9.6v4.1h-2.4c-23.5 0-33.9 7.6-33.9 21.2 0 12.5 8 19.7 19.9 19.7 9 0 12.9-3 15.9-6.1h.6c.1 1.7.6 3.8 1.1 5.1h15c-.5-5.3-.8-10.6-.8-15.9zm240.3 44.3H377l-21.2-33.4 18.3-31.4h-15.3l-11.1 19.6-12.4-19.6h-17.4L337.5 56l-20.4 33.8h15.6l13-21.9zM222.8 35.6c8.3 0 12.4 6.6 12.4 21.5 0 15.1-4.4 21.7-13 21.7-8.4 0-12.5-6.4-12.5-21.2-.1-15.3 4.3-22 13.1-22zm64.9 0c7.6 0 9.9 6.3 9.9 14.4v1.3h-21.4c.3-10.3 4.1-15.7 11.5-15.7zM104.1 74.2c-1.9 2.9-5.6 5.1-11 5.1-6.4 0-9.7-3.7-9.7-9.4 0-7.5 5.3-10.1 18.4-10.1h2.2v14.4zM45 74.4v15.2H29.4V64L0 0h16.3l22.9 50c4.4 9.6 5.8 12.9 5.8 24.4zM74.3 0L55.2 43.3H39.3L58.5 0z"/></svg><svg viewBox="0 0 36.3 41.91" fill-rule="evenodd" id="zip" xmlns="http://www.w3.org/2000/svg"><path d="M29.52 11.68H3.33c-1.84 0-3.33 1.5-3.33 3.33v15.24c0 1.84 1.5 3.33 3.33 3.33h26.19A2.48 2.48 0 0032 31.1V14.16a2.48 2.48 0 00-2.48-2.48z" data-original="#ff8000"/><path d="M7.4 0h21.33l7.56 7.56v32.25c0 1.15-.94 2.1-2.1 2.1H7.4c-1.15 0-2.1-.94-2.1-2.1V2.09c0-1.15.94-2.1 2.1-2.1z" data-original="#fcdeb0"/><path d="M36.3 7.56h-6.5c-.59 0-1.06-.48-1.06-1.06V0z" data-original="#d9c09a"/><path d="M10.73 11.68h20.13c.62 0 1.13.51 1.13 1.13v1.07c0 .62-.51 1.13-1.13 1.13H10.73c-.62 0-1.13-.51-1.13-1.13v-1.07c0-.62.51-1.13 1.13-1.13zm0-6.68h13.85c.62 0 1.13.51 1.13 1.13V7.2c0 .62-.51 1.13-1.13 1.13H10.73c-.62 0-1.13-.51-1.13-1.13V6.13c0-.62.51-1.13 1.13-1.13zm18.79 28.58H3.33C1.5 33.58 0 32.08 0 30.25V15.01c0 1.84 1.49 3.34 3.33 3.34h26.19A2.48 2.48 0 0132 20.83v10.26a2.48 2.48 0 01-2.48 2.48z" data-original="#ff9224"/><path fill-rule="nonzero" d="M9.46 29.62l2.96-7.28H9.61v-1.45h4.52v1.42l-2.96 7.28h2.96v1.45H9.46zm5.57-8.73h1.59v10.15h-1.59zm2.78 0h2.35c.79 0 1.39.21 1.78.64.4.43.59 1.05.59 1.87v1c0 .82-.2 1.45-.59 1.87-.4.43-.99.64-1.78.64h-.75v4.13h-1.59V20.89zm2.35 4.57c.26 0 .46-.07.59-.22.13-.14.2-.39.2-.74v-1.2c0-.35-.07-.59-.2-.74-.13-.14-.33-.22-.59-.22h-.75v3.12z" data-original="#f7f7f7"/></svg><svg viewBox="0 0 62 16" id="zoon" xmlns="http://www.w3.org/2000/svg"><path d="M.544.997h12.912c.3 0 .544.243.544.544V4.08c0 .338-.147.658-.402.88L6.378 11h7.078c.3 0 .544.24.544.54v2.915c0 .3-.244.544-.544.544H.544A.544.544 0 010 14.455V11.92c0-.338.147-.658.402-.88L7.622 5H.544A.55.55 0 010 4.45V1.541c0-.3.244-.544.544-.544zM23 .5c1.493 0 2.824.336 3.935.95a6.614 6.614 0 012.616 2.615c.613 1.111.949 2.442.949 3.935 0 1.493-.336 2.824-.95 3.935a6.614 6.614 0 01-2.615 2.616c-1.111.613-2.442.949-3.935.949-1.493 0-2.824-.336-3.935-.95a6.614 6.614 0 01-2.616-2.615C15.836 10.824 15.5 9.493 15.5 8c0-1.493.336-2.824.95-3.935a6.614 6.614 0 012.615-2.616C20.176.836 21.507.5 23 .5zm0 4c-.714 0-1.341.15-1.86.431-.518.28-.928.69-1.209 1.21-.28.518-.431 1.145-.431 1.859s.15 1.341.431 1.86c.28.518.69.928 1.21 1.209.518.28 1.145.431 1.859.431s1.341-.15 1.86-.431c.518-.28.928-.69 1.209-1.21.28-.518.431-1.145.431-1.859s-.15-1.341-.431-1.86a2.958 2.958 0 00-1.21-1.209C24.342 4.651 23.715 4.5 23 4.5zm16-4c1.493 0 2.824.336 3.935.95a6.614 6.614 0 012.616 2.615c.613 1.111.949 2.442.949 3.935 0 1.493-.336 2.824-.95 3.935a6.614 6.614 0 01-2.615 2.616c-1.111.613-2.442.949-3.935.949-1.493 0-2.824-.336-3.935-.95a6.614 6.614 0 01-2.616-2.615C31.836 10.824 31.5 9.493 31.5 8c0-1.493.336-2.824.95-3.935a6.614 6.614 0 012.615-2.616C36.176.836 37.507.5 39 .5zm0 4c-.714 0-1.341.15-1.86.431-.518.28-.928.69-1.209 1.21-.28.518-.431 1.145-.431 1.859s.15 1.341.431 1.86c.28.518.69.928 1.21 1.209.518.28 1.145.431 1.859.431s1.341-.15 1.86-.431c.518-.28.928-.69 1.209-1.21.28-.518.431-1.145.431-1.859s-.15-1.341-.431-1.86a2.958 2.958 0 00-1.21-1.209C40.342 4.651 39.715 4.5 39 4.5zm23.002-2.957v12.912c0 .3-.244.544-.545.544H58.92c-.338 0-.658-.147-.88-.402L52 7.377v7.078c0 .3-.25.544-.55.544h-2.907a.544.544 0 01-.545-.544V1.543c0-.3.244-.545.545-.545h2.537c.338 0 .658.147.88.403L58 8.622v-7.08c0-.3.24-.544.54-.544h2.917c.3 0 .545.244.545.545z"/></svg></svg>