<svg xmlns="http://www.w3.org/2000/svg" width="138" height="32" viewBox="0 0 138 32">
    <g fill="none" fill-rule="evenodd">
        <path fill="#354354" d="M93.754 20.54c2.597-.505 4.223-4.225 3.376-4.225-1.13 0-2.828 2.692-3.328 3.528l-.048.698m-17.448-3.068c1.506-1.48 3.274-8.319 2.368-8.344-.622 0-1.988 4.422-2.368 8.344m23.503 5.006c0 .202-.248 2.317-2.183 2.317-1.705 0-2.946-2.067-3.218-3.164a4.75 4.75 0 0 1-.73.186 27.13 27.13 0 0 0-.043 1.36c0 1.326.232 1.732-.05 1.732-.97 0-1.61-.678-1.61-1.289 0-.386.058-1.259.142-2.364-.841 1.57-2.284 3.539-3.607 3.539-1.748 0-2.53-.932-2.843-2.413-.652 1.087-1.617 2.413-2.449 2.413-.821 0-1.913-1.214-1.913-1.698 0-.495.01-.954.028-1.387-.84 1.616-2.062 3.199-3.386 3.199-1.367 0-3.432-1.303-3.432-6.023 0-6.805 2.908-12.038 3.984-12.038 1.019 0 2.186 1.024 2.186 1.872 0 5.392-2.973 10.163-4.477 10.921.038 2.145.558 3.762 1.942 3.762 1.788 0 3.344-6.04 3.663-7.359-.026-.398-.062-.811-.062-.928.838 0 2.088.765 2.088 1.198 0 .435-.923 4.925-.923 5.793 0 .5.084 1.068.302 1.068.566 0 1.607-2.138 2.314-3.759.298-2.448 1.94-4.39 3.583-4.39 2.819 0 2.005 3.54 1.646 3.54-.568 0-1.286-.282-1.286-.546 0-.263.643-1.318-.312-1.337-2.412 0-3.077 6.602-.71 6.817 1.46.132 3.27-4.156 3.984-6.214.191-2.339.37-4.58.37-5.324 0-.962-.128-1.801-.128-1.937 0-.136.139-.173.246-.173.244 0 1.249.757 1.249 1.291 0 2.259-.092 4.306-.2 6.098.655-.974 1.774-2.34 2.899-2.34.953 0 1.619.645 1.619 1.933 0 1.72-1.341 3.324-2.889 4.241.153.62.933 2.223 2.056 2.223 1.277 0 1-1.632 1.32-1.632.32 0 .83.609.83.812m-16.56-7.79c.644 0 1.166-.52 1.166-1.16 0-.642-.522-1.161-1.166-1.161-.643 0-1.165.52-1.165 1.16 0 .641.522 1.161 1.165 1.161m-10.476-1.364c.621 0 1.262-.478 1.262-2.367 0-2.133-2.055-4.11-4.755-4.11-3.18 0-7.045 3.685-7.045 9.625 0 5.94 2.994 8.6 6.281 8.6 3.288 0 5.519-2.309 5.519-3.361s-.265-1.987-.88-1.987c-.617 0-.97 4.033-4.345 4.033-3.376 0-4.256-4.15-4.256-6.926s1.842-8.591 4.696-8.591c1.321 0 2.806 1.135 2.806 2.333 0 .686-.105 1.173-.105 1.553 0 .865.352 1.198.822 1.198m-16.608 7.216c2.596-.506 4.222-4.226 3.375-4.226-1.13 0-2.828 2.692-3.328 3.528l-.047.698m-17.45-3.068c1.507-1.48 3.275-8.319 2.369-8.344-.622 0-1.988 4.422-2.368 8.344m23.503 5.006c0 .202-.247 2.317-2.183 2.317-1.705 0-2.946-2.067-3.218-3.164a4.756 4.756 0 0 1-.73.186c-.027.506-.043.963-.043 1.36 0 1.326.232 1.732-.049 1.732-.971 0-1.61-.678-1.61-1.289 0-.386.057-1.259.14-2.364-.84 1.57-2.283 3.539-3.606 3.539-1.748 0-2.53-.932-2.843-2.413-.651 1.087-1.617 2.413-2.449 2.413-.821 0-1.913-1.214-1.913-1.698 0-.495.011-.954.028-1.387-.84 1.616-2.062 3.199-3.386 3.199-1.367 0-3.432-1.303-3.432-6.023 0-6.805 2.908-12.038 3.985-12.038 1.018 0 2.185 1.024 2.185 1.872 0 5.392-2.973 10.163-4.477 10.921.038 2.145.558 3.762 1.942 3.762 1.788 0 3.344-6.04 3.663-7.359-.026-.398-.062-.811-.062-.928.838 0 2.088.765 2.088 1.198 0 .435-.922 4.925-.922 5.793 0 .5.083 1.068.301 1.068.566 0 1.607-2.138 2.314-3.759.298-2.448 1.94-4.39 3.583-4.39 2.819 0 2.005 3.54 1.646 3.54-.568 0-1.286-.282-1.286-.546 0-.263.643-1.318-.312-1.337-2.412 0-3.077 6.602-.71 6.817 1.46.132 3.27-4.156 3.984-6.214.191-2.339.37-4.58.37-5.324 0-.962-.128-1.801-.128-1.937 0-.136.139-.173.246-.173.244 0 1.249.757 1.249 1.291 0 2.259-.092 4.306-.2 6.098.655-.974 1.774-2.34 2.899-2.34.953 0 1.619.645 1.619 1.933 0 1.72-1.341 3.324-2.889 4.241.153.62.933 2.223 2.056 2.223 1.277 0 1-1.632 1.32-1.632.32 0 .83.609.83.812m-16.56-7.79c.644 0 1.166-.52 1.166-1.16 0-.642-.522-1.161-1.165-1.161-.644 0-1.166.52-1.166 1.16 0 .641.522 1.161 1.166 1.161m-11.3-2.562c0-.38.106-.867.106-1.553 0-1.198-1.485-2.333-2.806-2.333-2.854 0-4.696 5.815-4.696 8.591 0 2.776.88 6.926 4.256 6.926 3.375 0 3.728-4.033 4.344-4.033.617 0 .88.935.88 1.987s-2.23 3.36-5.518 3.36c-3.287 0-6.281-2.659-6.281-8.599S28.51 6.85 31.69 6.85c2.7 0 4.755 1.976 4.755 4.11 0 1.888-.641 2.366-1.263 2.366-.469 0-.821-.333-.821-1.198"/>
        <path fill="#F74656" d="M18.37 17.778c-.63 1.143-1.917 1.687-3.18 1.668-1.112-.018-2.052-.706-2.723-1.534-.975-1.203-1.908-2.457-2.932-3.618-.743-.84-1.932-1.274-3.024-.876-1.232.449-2.036 1.726-1.804 3.035.228 1.29 1.334 2.12 2.592 2.218.597.047 1.255-.158 1.736-.52.213-.16.411-.397.589-.597.173-.196.358-.576.63-.654.264-.075.429.169.569.341.27.332.571.653.815 1.004.135.194.193.343.067.563-.14.247-.382.494-.587.692-.976.944-2.107 1.467-3.462 1.567-1.238.092-2.513-.33-3.486-1.098-.887-.7-1.52-1.745-1.805-2.849-.178-.688-.15-1.447-.021-2.122.122-.638.403-1.188.721-1.743 1.206-2.103 4.21-2.977 6.405-1.935a5.887 5.887 0 0 1 2.092 1.616c.922 1.12 1.322 1.671 2.244 2.792.298.364.587.82.973 1.103.552.404 1.264.177 1.57-.402.317-.603-.07-1.32-.714-1.467-.338-.078-.581.044-.902.134-.331.093-.487-.028-.674-.259-.287-.354-1.234-1.276-.658-1.702.486-.359 1.169-.612 1.774-.612.658 0 1.261.066 1.844.397.566.322 1.014.703 1.349 1.266.688 1.16.643 2.427.001 3.592m.354-10.414c-1.932-2.042-5.402-2.314-8.214-2.36-2.81.046-6.28.363-8.213 2.451C.319 9.453.056 13.038.012 15.943c.043 2.905.35 6.491 2.371 8.488 1.933 2.043 5.403 2.315 8.214 2.36 2.811-.045 6.281-.363 8.214-2.496 1.977-1.997 2.24-5.583 2.284-8.488-.044-2.86-.351-6.445-2.372-8.443"/>
        <path fill="#F74656" d="M7.83 12.211a3.96 3.96 0 0 0-1.025-.002l-.03-.232a4.174 4.174 0 0 1 1.085.002l-.03.232zm1.968.812a2.2 2.2 0 0 0-.06-.054 3.045 3.045 0 0 0-.805-.466l.09-.216c.346.142.654.321.868.505l.068.06-.161.171zm-4.917.095l-.157-.175a4.386 4.386 0 0 1 .895-.611l.106.208a4.145 4.145 0 0 0-.844.578zm10.052.816l-.096-.213c.31-.138.714-.162 1.113-.067l-.055.228c-.349-.084-.7-.065-.962.052zm-3.731.794a51.4 51.4 0 0 0-.645-.834l.185-.145c.201.254.42.538.647.837l-.187.142zm-7.441.2l-.227-.062c.1-.356.242-.69.423-.996l.203.12c-.171.287-.305.603-.4.938zm13.634.315a2.112 2.112 0 0 0-.535-.832l.162-.17a2.352 2.352 0 0 1 .595.926l-.222.076zm-4.836 1.256c-.213-.27-.43-.553-.648-.837l.188-.141c.215.283.432.564.645.833l-.185.145zm-9.052.626a3.448 3.448 0 0 1-.145-.958l.001-.117.235.005v.1c0 .3.045.6.134.905l-.225.065zm13.823.278l-.2-.122c.172-.282.293-.607.347-.94l.232.037c-.06.363-.19.718-.38 1.025zm-3.172.692a3.387 3.387 0 0 1-.845-.687l.175-.157c.245.27.509.485.785.64l-.115.204zm1.239.333l-.066-.001.007-.234h.059c.313 0 .631-.067.918-.195l.096.213a2.505 2.505 0 0 1-1.014.217zm-10.678.607a4.071 4.071 0 0 1-.708-.82l.197-.128c.19.289.414.549.667.773l-.156.175zm5.34.021l-.166-.166.036-.036c.156-.171.58-.602.599-.62l.167.164c-.004.004-.44.446-.595.616l-.042.042zm-3.276.917a4.096 4.096 0 0 1-1.046-.29l.093-.215c.305.132.637.223.986.273l-.033.232zm1.203.009l-.03-.233c.352-.044.685-.13.992-.255l.09.217c-.327.132-.68.224-1.052.27zM132.812 19.467c2.376-.356 3.32-3.61 2.124-3.61-1.165 0-1.966 1.803-2.124 3.61m4.967 1.487c0 .795-1.324 3.378-3.212 3.378-1.908 0-3.271-1.866-3.193-4.385 0-3.295 1.985-5.277 3.543-5.277.76 0 1.733.296 1.733 1.885 0 1.891-1.51 3.953-3.834 4.2.13 1.3.674 2.35 1.76 2.35 1.918 0 1.665-2.79 2.054-2.79.39 0 1.149.155 1.149.64m-8.313-6.635c-.194 0-.277.135-.277.432s.075 1.055.075 3.162c0 2.108-.835 5.036-1.648 5.024-.353-.005-.799-.962-.799-2.14 0-3.318.535-4.411.535-4.807 0-.395-.692-1.24-1.084-1.24-.481 0-.848 1.555-.911 3.41-.475 1.645-1.448 4.554-2.396 4.554-.367 0-.33-.73-.33-1.656 0-.926.82-4.78.82-5.222 0-.443-1.822-1.576-1.822-1.015 0 .265-.14 1.538-.289 2.945-.62 1.542-2.162 5.082-3.242 5.082-.228 0-.748-.295-.748-1.04 0-.746 1.006-2.839 1.006-4.26 0-.969-1.284-1.748-2.232-2.614a8.224 8.224 0 0 0 .194-1.756c-.057-.935-.84-1.516-1.644-1.516-.637 0-.697 1.74-.697 2.436 0 .284.295.673.694 1.094-.32 1.024-.744 1.992-1.2 1.98-.102.495.255 1.073.63 1.073.416 0 1.123-.783 1.627-2.022.576.55 1.072 1.051 1.072 1.341 0 .692-1.028 2.988-1.028 4.361 0 1.374.887 2.406 1.893 2.406 1.152 0 2.522-1.568 3.345-2.86-.005.11-.007.21-.007.293 0 1.34.832 2.567 2.056 2.567.873 0 1.946-1.979 2.489-3.111.3 1.72.964 3.11 2.152 3.11 2.92 0 3.077-8.237 3.077-8.862 0-.41-1.117-1.149-1.311-1.149M123 14.211c.627 0 1.136-.506 1.136-1.13 0-.625-.509-1.131-1.136-1.131-.627 0-1.136.506-1.136 1.13 0 .625.509 1.131 1.136 1.131m-9.99.733c0 7.912-5.26 10.008-9.516 10.009-1.917 0-2.264-.601-2.213-1.226 0-1.695 1.236-9.505 1.236-12.768 0-.355-.094-.595.175-.595.617.045 1.737.67 1.737 1.3 0 .629-1.232 10.428-1.232 11.577v.175c.273.034.604.055 1.007.055 4.103 0 6.985-3.555 6.985-7.794 0-3-1.409-7.664-6.383-7.664-4.014 0-4.296 4.11-4.696 4.11-.4 0-1.394-.857-1.394-1.978 0-1.12 2.017-3.661 6.09-3.661 5.581 0 8.203 4.426 8.203 8.46"/>
    </g>
</svg>
