<svg xmlns="http://www.w3.org/2000/svg" version="1.1" xmlns:xlink="http://www.w3.org/1999/xlink" width="512" height="512" x="0" y="0" viewBox="0 0 32 32" style="enable-background:new 0 0 512 512" xml:space="preserve" class="hovered-paths"><g><path d="M29 16a1 1 0 0 1-1 1H10a1 1 0 0 1 0-2h18a1 1 0 0 1 1 1zM29 26a1 1 0 0 1-1 1H10a1 1 0 1 1 0-2h18a1 1 0 0 1 1 1zM9 6a1 1 0 0 1 1-1h18a1 1 0 0 1 0 2H10a1 1 0 0 1-1-1zM5 8c-1.103 0-2-.897-2-2s.897-2 2-2 2 .897 2 2-.897 2-2 2zM5 18c-1.103 0-2-.897-2-2s.897-2 2-2 2 .897 2 2-.897 2-2 2zM5 28c-1.103 0-2-.897-2-2s.897-2 2-2 2 .897 2 2-.897 2-2 2z" fill="#fff" opacity="1" data-original="#fff" class="hovered-path"></path></g></svg>