<svg xmlns="http://www.w3.org/2000/svg" version="1.1" xmlns:xlink="http://www.w3.org/1999/xlink" width="512" height="512" x="0" y="0" viewBox="0 0 451 451.454" style="enable-background:new 0 0 512 512" xml:space="preserve" class=""><g><path d="M218.25 232.977c3.902 3.902 10.227 3.898 14.129-.004a10.001 10.001 0 0 0 2.926-7.059V73.707a9.99 9.99 0 0 0-9.993-9.992c-5.515 0-9.988 4.472-9.988 9.992v128.09l-54.715-54.715c-3.968-3.832-10.293-3.723-14.125.246a9.982 9.982 0 0 0 0 13.879zm0 0" fill="#4B7F9C" opacity="1" data-original="#4B7F9C"></path><path d="M385.063 66.164A224.452 224.452 0 0 0 225.313 0c-5.516 0-9.989 4.473-9.989 9.992v25.442c0 5.52 4.473 9.992 9.988 9.992a9.99 9.99 0 0 0 9.993-9.992V20.219c105.62 5.078 190.625 90.082 195.703 195.703h-15.215a9.99 9.99 0 0 0-9.992 9.992c0 5.516 4.472 9.988 9.992 9.988h15.215c-5.078 105.625-90.082 190.63-195.703 195.703v-15.214c0-5.516-4.473-9.989-9.993-9.989-5.515 0-9.988 4.473-9.988 9.989v15.214C109.7 426.531 24.695 341.527 19.621 235.902h15.215c5.516 0 9.988-4.472 9.988-9.988 0-5.52-4.472-9.992-9.988-9.992H19.62a204.41 204.41 0 0 1 60.07-135.633c3.832-3.969 3.723-10.293-.246-14.125a9.995 9.995 0 0 0-13.882 0c-87.762 88.688-87.016 231.734 1.671 319.5 88.036 87.113 229.793 87.113 317.829 0 88.218-88.23 88.218-231.27 0-319.5zm0 0" fill="#4B7F9C" opacity="1" data-original="#4B7F9C"></path></g></svg>