<svg xmlns="http://www.w3.org/2000/svg" version="1.1" xmlns:xlink="http://www.w3.org/1999/xlink" width="512" height="512" x="0" y="0" viewBox="0 0 48 48" style="enable-background:new 0 0 512 512" xml:space="preserve"><g><path d="M7 38.5c0 3.78 8.81 5.5 17 5.5s17-1.72 17-5.5c0-3.24-6.43-4.87-12.78-5.34l.08-.16a4.51 4.51 0 0 1 2.16-2.53A14 14 0 1 0 14.3 7.9a14 14 0 0 0 3.25 22.53A4.49 4.49 0 0 1 19.7 33l.08.21C13.49 33.63 7 35.26 7 38.5zm11.47-9.85A12 12 0 0 1 24 6h.5a12 12 0 0 1 5 22.63 6.54 6.54 0 0 0-3.12 3.63l-1.93 5.39a.52.52 0 0 1-1 0l-1.93-5.38a6.48 6.48 0 0 0-3.05-3.62zm2 6.46 1.15 3.22a2.52 2.52 0 0 0 4.74 0l1.15-3.21C35.16 35.61 39 37.54 39 38.5c0 1.19-5.29 3.5-15 3.5S9 39.69 9 38.5c0-.9 3.47-2.87 11.48-3.39z" fill="#4B7F9C" opacity="1" data-original="#4B7F9C"></path><path d="M24 23a5 5 0 1 0-5-5 5 5 0 0 0 5 5zm0-8a3 3 0 1 1-3 3 3 3 0 0 1 3-3z" fill="#4B7F9C" opacity="1" data-original="#4B7F9C"></path></g></svg>