<svg xmlns="http://www.w3.org/2000/svg" version="1.1" xmlns:xlink="http://www.w3.org/1999/xlink" width="512" height="512" x="0" y="0" viewBox="0 0 443.375 443.375" style="enable-background:new 0 0 512 512" xml:space="preserve"><g><path d="M433.892 331.975c-16-15.3-33.1-29.6-51-42.7-4.3-2.8-26.2-17.1-36.1-21.3-11.5-6.7-25.3-8.3-38-4.3-11.7 3.4-15.8 8.5-26.9 21.3-5.3 6.6-10.2 12.2-10.5 12.6l-1.3 1.1c-5.3 2.8-17.9 0-34.8-8.5-15.6-8-30-18.2-42.7-30.3-12.6-11-23.8-23.6-33.1-37.5-8.4-12.8-13.8-27.4-15.8-42.7.1-3 1.7-6.3 3.4-8.5 2.8-4.2 6.3-7.9 10.2-11.1 16.4-13.2 22.8-19.2 25.4-30.3 2.7-13.3.1-27.2-7.3-38.6a331.53 331.53 0 0 0-64-82.1c-3.6-3-7.8-5.2-12.4-6.4-7.3-2.7-15.2-3.4-22.8-1.9-13.2 4.9-25.4 12.1-36.1 21.3-12.2 8.9-23.1 19.5-32.2 31.6-10.9 18.1-8.1 34.8 1.7 60.8 13.8 37.4 31.8 73.2 53.8 106.5 3 5.1 6.2 10.2 10.7 16.4l10.9 14.1c35.9 47.9 79.1 89.9 128 124.4 66.3 43.6 113.5 61.7 113.5 61.7 8.1 3.5 16.8 5.5 25.6 5.8h4.7c14.5-.8 28.3-6.3 39.5-15.6 17.8-14.5 32.4-32.6 42.7-53.1 6.1-14.1 4.1-30.4-5.1-42.7zm-15 34.2c-8.8 16.8-20.8 31.7-35.4 43.7-7.8 6.8-17.6 10.8-27.9 11.3-7.3.6-14.7-.7-21.3-3.8 0 0-52.6-19.8-110.9-60.2-46.4-33.2-87.3-73.5-121.4-119.3l-10.9-14.3c-3.2-4.7-6.2-9.6-9.8-15.4-21.3-31.4-38.6-65.2-51.8-100.7-9.6-27.1-8.1-34.3-3-43.3 7.8-9.4 16.7-17.8 26.7-25 8.6-7.4 18.2-13.4 28.6-17.9 4.4-.4 8.7.3 12.8 1.9 1.6.6 3 1.5 4.3 2.6 23.1 22 41.7 47.9 58.7 74.9 4.4 7 6.8 15 6 23.3 0 4.1-1.6 7.1-17.7 19-3.9 2.8-7.7 5.7-11.1 9.2 0 0-11.9 10.1-11.5 27.5 1.9 19.3 8.4 37.9 19 54.2 10.3 15.8 22.6 30.2 36.7 42.7 14.2 13.4 30.8 23.5 47.6 33.5 15.3 9.1 33 13.4 50.3 9.2 5.2-2 8.7-5.3 9.4-6.2 2.6-2.8 8.1-9.2 12.6-14.7 10.9-13.4 11.5-13.7 16.6-15.1 7-2.5 14.8-1.9 21.3 1.7 6.8 3.6 22.6 13.7 33.7 21.3 16.2 11.7 31.7 24.2 46.5 37.5 4.8 6.5 5.6 15.2 1.9 22.4z" fill="#4B7F9C" opacity="1" data-original="#4B7F9C"></path></g></svg>