<svg xmlns="http://www.w3.org/2000/svg" version="1.1" xmlns:xlink="http://www.w3.org/1999/xlink" width="512" height="512" x="0" y="0" viewBox="0 0 512 512" style="enable-background:new 0 0 512 512" xml:space="preserve" class=""><g><circle cx="256" cy="271" r="15" fill="#1e2137" opacity=".3" data-original="#1e2137" class=""></circle><path d="M256 0C115.042 0 0 115.049 0 256c0 140.961 115.049 256 256 256 140.96 0 256-115.049 256-256C512 115.042 396.951 0 256 0zm0 61c97.323 0 178.219 71.668 192.692 165h-52.019c-32.982 0-64.318-13.235-85.973-36.311-29.6-31.546-79.797-31.556-109.4-.001C179.645 212.765 148.309 226 115.326 226H63.308C77.781 132.668 158.677 61 256 61zm0 255c-24.812 0-45-20.186-45-45s20.188-45 45-45c24.814 0 45 20.186 45 45s-20.186 45-45 45zM74.42 327.097C91.59 320.361 103.988 316 121 316c54.688 0 97.219 48.734 88.981 103.49h-.035a89.694 89.694 0 0 1-7.105 24.145c-58.759-16.67-106.31-60.262-128.421-116.538zm234.751 116.534a89.464 89.464 0 0 1-7.117-24.141h-.035c-9.599-63.805 49.301-116.452 110.354-100.936 6.436 1.636 14.49 4.34 25.206 8.544-22.109 56.271-69.655 99.861-128.408 116.533z" fill="#1e2137" opacity=".3" data-original="#1e2137" class=""></path></g></svg>