<svg width="360" height="77" viewBox="0 0 360 77" fill="none" xmlns="http://www.w3.org/2000/svg">
<g clip-path="url(#clip0_1223_1604)">
<path d="M258 5C258 2.23858 260.239 0 263 0H355C357.761 0 360 2.23858 360 5V72C360 74.7614 357.761 77 355 77H263C260.239 77 258 74.7614 258 72V5Z" fill="white"/>
<path fill-rule="evenodd" clip-rule="evenodd" d="M355 3H263C261.895 3 261 3.89543 261 5V72C261 73.1046 261.895 74 263 74H355C356.105 74 357 73.1046 357 72V5C357 3.89543 356.105 3 355 3ZM263 0C260.239 0 258 2.23858 258 5V72C258 74.7614 260.239 77 263 77H355C357.761 77 360 74.7614 360 72V5C360 2.23858 357.761 0 355 0H263Z" fill="black"/>
<path d="M0 5C0 2.23858 2.23858 0 5 0H256C258.761 0 261 2.23858 261 5V72C261 74.7614 258.761 77 256 77H5.00001C2.23858 77 0 74.7614 0 72V5Z" fill="white"/>
<path fill-rule="evenodd" clip-rule="evenodd" d="M256 3H5C3.89543 3 3 3.89543 3 5V72C3 73.1046 3.89543 74 5.00001 74H256C257.105 74 258 73.1046 258 72V5C258 3.89544 257.105 3 256 3ZM5 0C2.23858 0 0 2.23858 0 5V72C0 74.7614 2.23858 77 5.00001 77H256C258.761 77 261 74.7614 261 72V5C261 2.23858 258.761 0 256 0H5Z" fill="black"/>
<path d="M225.764 57.9998L232.206 23.8945H240.796L247.154 57.9998H240.206L239.069 50.7998H234.059L232.88 57.9998H225.764ZM234.733 46.2945H238.354L236.543 32.9893L234.733 46.2945Z" fill="url(#paint0_linear_1223_1604)"/>
<path d="M195.859 57.9998V52.6945C196.813 52.6945 197.585 52.6384 198.175 52.5261C198.764 52.3858 199.227 52.077 199.564 51.5998C199.901 51.1226 200.168 50.3928 200.364 49.4103C200.561 48.4279 200.715 47.1086 200.827 45.4524C200.968 43.7963 201.136 41.691 201.333 39.1366L202.427 23.8945H220.49V57.9998H212.996V29.663H209.248L208.575 40.5682C208.378 43.3752 208.182 45.8033 207.985 47.8524C207.789 49.8735 207.466 51.5717 207.017 52.9472C206.596 54.3226 205.95 55.4033 205.08 56.1893C204.238 56.9472 203.073 57.4665 201.585 57.7472C200.097 58.0279 198.189 58.1121 195.859 57.9998Z" fill="url(#paint1_linear_1223_1604)"/>
<path d="M181.504 58.5034C178.95 58.5034 176.929 58.0543 175.441 57.156C173.953 56.2578 172.886 54.9665 172.241 53.2823C171.595 51.5981 171.272 49.5911 171.272 47.2613V34.5876C171.272 32.2297 171.595 30.2227 172.241 28.5665C172.886 26.9104 173.953 25.6472 175.441 24.7771C176.929 23.8788 178.95 23.4297 181.504 23.4297C184.086 23.4297 186.122 23.8788 187.609 24.7771C189.125 25.6472 190.206 26.9104 190.851 28.5665C191.497 30.2227 191.82 32.2297 191.82 34.5876V47.2613C191.82 49.5911 191.497 51.5981 190.851 53.2823C190.206 54.9665 189.125 56.2578 187.609 57.156C186.122 58.0543 184.086 58.5034 181.504 58.5034ZM181.504 53.156C182.29 53.156 182.865 52.9595 183.23 52.5665C183.595 52.1735 183.834 51.6683 183.946 51.0507C184.058 50.4332 184.115 49.8016 184.115 49.156V32.735C184.115 32.0613 184.058 31.4297 183.946 30.8402C183.834 30.2227 183.595 29.7174 183.23 29.3244C182.865 28.9314 182.29 28.7349 181.504 28.7349C180.774 28.7349 180.227 28.9314 179.862 29.3244C179.497 29.7174 179.258 30.2227 179.146 30.8402C179.034 31.4297 178.978 32.0613 178.978 32.735V49.156C178.978 49.8016 179.02 50.4332 179.104 51.0507C179.216 51.6683 179.441 52.1735 179.778 52.5665C180.143 52.9595 180.718 53.156 181.504 53.156Z" fill="url(#paint2_linear_1223_1604)"/>
<path d="M146.082 57.9998V23.8945H153.619V37.4103H154.377L159.387 23.8945H166.882L160.65 39.8945L167.093 57.9998H159.345L154.377 43.1366H153.619V57.9998H146.082Z" fill="url(#paint3_linear_1223_1604)"/>
<path d="M109.653 57.9998V23.8945H116.769V52.6103H120.937V23.8945H128.011V52.6103H132.011V23.8945H139.084V57.9998H109.653Z" fill="url(#paint4_linear_1223_1604)"/>
<path fill-rule="evenodd" clip-rule="evenodd" d="M225.558 59.9998L232.378 23.8945H242.627L249.357 59.9998H240.352L239.215 52.7998H235.909L234.73 59.9998H225.558ZM235.059 51.7998H240.069L241.206 58.9998H248.154L241.796 24.8945H233.206L226.764 58.9998H233.88L235.059 51.7998ZM239.354 47.2945L237.543 33.9893L235.733 47.2945H239.354ZM236.878 46.2945H238.208L237.543 41.4058L236.878 46.2945Z" fill="url(#paint5_linear_1223_1604)"/>
<path fill-rule="evenodd" clip-rule="evenodd" d="M195.859 59.9528V52.6945H196.859C197.768 52.6945 198.463 52.6412 198.964 52.5482C199.315 52.4603 199.56 52.2882 199.747 52.0231C199.966 51.7138 200.198 51.144 200.384 50.2142C200.568 49.2926 200.719 48.0218 200.83 46.3848L200.83 46.3764L200.831 46.368C200.971 44.7162 201.139 42.6149 201.335 40.0635C201.335 40.0623 201.335 40.0611 201.336 40.0599L202.497 23.8945H222.49V59.9998H212.996V31.663H211.188L210.572 41.638C210.375 44.4508 210.178 46.8878 209.981 48.9479L209.981 48.9492C209.78 51.0122 209.447 52.7843 208.97 54.2489C208.508 55.7541 207.78 57.0013 206.75 57.9314L206.749 57.9326C205.732 58.8477 204.38 59.4262 202.771 59.7298C201.176 60.0306 199.182 60.1129 196.811 59.9986L195.859 59.9528ZM210.248 30.663H213.996V58.9998H221.49V24.8945H203.427L202.333 40.1366C202.136 42.691 201.968 44.7963 201.827 46.4524C201.715 48.1086 201.561 49.4279 201.364 50.4103C201.168 51.3928 200.901 52.1226 200.564 52.5998C200.227 53.077 199.764 53.3858 199.175 53.5261C198.585 53.6384 197.813 53.6945 196.859 53.6945V58.9997C199.189 59.112 201.097 59.0279 202.585 58.7472C204.073 58.4665 205.238 57.9472 206.08 57.1893C206.95 56.4033 207.596 55.3226 208.017 53.9472C208.466 52.5717 208.789 50.8735 208.985 48.8524C209.182 46.8033 209.378 44.3752 209.575 41.5682L210.248 30.663Z" fill="url(#paint6_linear_1223_1604)"/>
<path fill-rule="evenodd" clip-rule="evenodd" d="M183.964 32.0273L183.962 32.0191C183.878 31.5567 183.712 31.2356 183.498 31.0049C183.395 30.8949 183.143 30.7349 182.504 30.7349C181.948 30.7349 181.71 30.8811 181.595 31.0049C181.38 31.2356 181.214 31.5567 181.13 32.0191L181.129 32.0273C181.029 32.5482 180.978 33.1165 180.978 33.735V50.156C180.978 50.75 181.016 51.3287 181.092 51.8927C181.178 52.3496 181.333 52.67 181.522 52.898C181.631 53.0072 181.888 53.156 182.504 53.156C183.143 53.156 183.395 52.9961 183.498 52.8861C183.712 52.6553 183.878 52.3343 183.962 51.8719C184.064 51.315 184.115 50.7433 184.115 50.156V33.735C184.115 33.1165 184.063 32.5482 183.964 32.0273ZM180.778 53.5665C180.441 53.1735 180.216 52.6683 180.104 52.0507C180.02 51.4332 179.978 50.8016 179.978 50.156V33.735C179.978 33.0613 180.034 32.4297 180.146 31.8402C180.258 31.2227 180.497 30.7174 180.862 30.3244C181.227 29.9314 181.774 29.7349 182.504 29.7349C183.29 29.7349 183.865 29.9314 184.23 30.3244C184.595 30.7174 184.834 31.2227 184.946 31.8402C185.058 32.4297 185.115 33.0613 185.115 33.735V50.156C185.115 50.8016 185.058 51.4332 184.946 52.0507C184.834 52.6683 184.595 53.1735 184.23 53.5665C183.865 53.9595 183.29 54.156 182.504 54.156C181.718 54.156 181.143 53.9595 180.778 53.5665ZM182.504 60.5034C179.848 60.5034 177.624 60.0387 175.924 59.0121C174.238 57.9942 173.029 56.5238 172.307 54.6403C171.607 52.8139 171.272 50.6795 171.272 48.2613V35.5876C171.272 33.1437 171.606 31.0062 172.309 29.2033C173.033 27.3465 174.244 25.9051 175.93 24.9174C177.63 23.8932 179.851 23.4297 182.504 23.4297C185.181 23.4297 187.416 23.8918 189.117 24.9153C190.829 25.901 192.058 27.342 192.783 29.2033C193.486 31.0062 193.82 33.1437 193.82 35.5876V48.2613C193.82 50.6795 193.485 52.8139 192.785 54.6403C192.061 56.5282 190.835 57.9983 189.123 59.0143C187.421 60.0402 185.184 60.5034 182.504 60.5034ZM188.609 58.156C190.125 57.2578 191.206 55.9665 191.851 54.2823C192.497 52.5981 192.82 50.5911 192.82 48.2613V35.5876C192.82 33.2297 192.497 31.2227 191.851 29.5665C191.206 27.9104 190.125 26.6472 188.609 25.7771C187.122 24.8788 185.086 24.4297 182.504 24.4297C179.95 24.4297 177.929 24.8788 176.441 25.7771C174.953 26.6472 173.886 27.9104 173.241 29.5665C172.595 31.2227 172.272 33.2297 172.272 35.5876V48.2613C172.272 50.5911 172.595 52.5981 173.241 54.2823C173.886 55.9665 174.953 57.2578 176.441 58.156C177.929 59.0543 179.95 59.5034 182.504 59.5034C185.086 59.5034 187.122 59.0543 188.609 58.156Z" fill="url(#paint7_linear_1223_1604)"/>
<path fill-rule="evenodd" clip-rule="evenodd" d="M146.082 59.9998V23.8945H155.619V34.8804L159.692 23.8945H169.345L162.717 40.9103L169.51 59.9998H159.625L155.619 48.0151V59.9998H146.082ZM155.377 44.1366L160.345 58.9998H168.093L161.65 40.8945L167.882 24.8945H160.387L155.377 38.4103H154.619V24.8945H147.082V58.9998H154.619V44.1366H155.377Z" fill="url(#paint8_linear_1223_1604)"/>
<path fill-rule="evenodd" clip-rule="evenodd" d="M109.653 59.9998V23.8945H118.769V52.6103H120.937V23.8945H130.011V52.6103H132.011V23.8945H141.084V59.9998H109.653ZM133.011 53.6103H129.011V24.8945H121.937V53.6103H117.769V24.8945H110.653V58.9998H140.084V24.8945H133.011V53.6103Z" fill="url(#paint9_linear_1223_1604)"/>
<path d="M95.0416 57.5034C92.4873 57.5034 90.4662 57.0543 88.9785 56.156C87.4908 55.2578 86.4241 53.9665 85.7785 52.2823C85.1329 50.5981 84.8101 48.5911 84.8101 46.2613V33.5876C84.8101 31.2297 85.1329 29.2227 85.7785 27.5665C86.4241 25.9104 87.4908 24.6472 88.9785 23.7771C90.4662 22.8788 92.4873 22.4297 95.0416 22.4297C97.6241 22.4297 99.6592 22.8788 101.147 23.7771C102.663 24.6472 103.743 25.9104 104.389 27.5665C105.035 29.2227 105.357 31.2297 105.357 33.5876V46.2613C105.357 48.5911 105.035 50.5981 104.389 52.2823C103.743 53.9665 102.663 55.2578 101.147 56.156C99.6592 57.0543 97.6241 57.5034 95.0416 57.5034ZM95.0416 52.156C95.8276 52.156 96.403 51.9595 96.768 51.5665C97.1329 51.1735 97.3715 50.6683 97.4837 50.0507C97.596 49.4332 97.6522 48.8016 97.6522 48.156V31.735C97.6522 31.0613 97.596 30.4297 97.4837 29.8402C97.3715 29.2227 97.1329 28.7174 96.768 28.3244C96.403 27.9314 95.8276 27.7349 95.0416 27.7349C94.3118 27.7349 93.7644 27.9314 93.3995 28.3244C93.0346 28.7174 92.796 29.2227 92.6837 29.8402C92.5715 30.4297 92.5153 31.0613 92.5153 31.735V48.156C92.5153 48.8016 92.5574 49.4332 92.6416 50.0507C92.7539 50.6683 92.9785 51.1735 93.3153 51.5665C93.6802 51.9595 94.2557 52.156 95.0416 52.156Z" fill="url(#paint10_linear_1223_1604)"/>
<path d="M67.9127 56.9998V28.4945H62.7759V22.8945H80.5864V28.4945H75.4917V56.9998H67.9127Z" fill="url(#paint11_linear_1223_1604)"/>
<path d="M38.4014 56.9998V22.8945H47.2856C48.7452 22.8945 50.1207 23.0068 51.4119 23.2314C52.7312 23.4559 53.8961 23.891 54.9066 24.5366C55.9172 25.1542 56.7031 26.0524 57.2645 27.2314C57.854 28.3823 58.1487 29.9121 58.1487 31.8208C58.1487 33.1963 57.9382 34.3612 57.5172 35.3156C57.1242 36.2419 56.5487 36.9858 55.7908 37.5472C55.061 38.1086 54.1768 38.4875 53.1382 38.684C54.4575 38.8524 55.5663 39.2875 56.4645 39.9893C57.3628 40.663 58.0365 41.5752 58.4856 42.7261C58.9628 43.877 59.2014 45.2665 59.2014 46.8945C59.2014 48.663 58.9628 50.1928 58.4856 51.484C58.0365 52.7472 57.3768 53.7858 56.5066 54.5998C55.6365 55.4138 54.5558 56.0173 53.2645 56.4103C52.0014 56.8033 50.5417 56.9998 48.8856 56.9998H38.4014ZM45.9382 51.7366H47.5382C49.1944 51.7366 50.3312 51.3156 50.9487 50.4735C51.5944 49.6314 51.9172 48.3963 51.9172 46.7682C51.9172 45.477 51.7768 44.4524 51.4961 43.6945C51.2154 42.9366 50.7522 42.3893 50.1066 42.0524C49.461 41.6875 48.5908 41.5051 47.4961 41.5051H45.9382V51.7366ZM45.9382 36.5366H47.4119C48.5628 36.5366 49.4329 36.3682 50.0224 36.0314C50.6119 35.6665 51.0049 35.1472 51.2014 34.4735C51.4259 33.7998 51.5382 32.9858 51.5382 32.0314C51.5382 31.1331 51.3698 30.3893 51.0329 29.7998C50.7242 29.1823 50.247 28.7191 49.6014 28.4103C48.9838 28.1016 48.1979 27.9472 47.2435 27.9472H45.9382V36.5366Z" fill="url(#paint12_linear_1223_1604)"/>
<path d="M11.8843 56.9998L18.3264 22.8945H26.9159L33.2738 56.9998H26.3264L25.1895 49.7998H20.179L19.0001 56.9998H11.8843ZM20.8527 45.2945H24.4738L22.6632 31.9893L20.8527 45.2945Z" fill="url(#paint13_linear_1223_1604)"/>
<path fill-rule="evenodd" clip-rule="evenodd" d="M97.5014 31.0273L97.4998 31.0191C97.4158 30.5567 97.2494 30.2356 97.0352 30.0049C96.933 29.8949 96.6802 29.7349 96.0416 29.7349C95.4857 29.7349 95.2472 29.8811 95.1323 30.0049C94.9181 30.2356 94.7517 30.5567 94.6676 31.0191L94.6661 31.0273C94.5669 31.5482 94.5153 32.1165 94.5153 32.735V49.156C94.5153 49.75 94.5535 50.3287 94.6294 50.8927C94.7153 51.3496 94.8701 51.67 95.0596 51.898C95.1687 52.0072 95.4259 52.156 96.0416 52.156C96.6802 52.156 96.933 51.9961 97.0352 51.8861C97.2494 51.6553 97.4158 51.3343 97.4999 50.8719C97.6011 50.315 97.6522 49.7433 97.6522 49.156V32.735C97.6522 32.1165 97.6006 31.5482 97.5014 31.0273ZM94.3153 52.5665C93.9785 52.1735 93.7539 51.6683 93.6416 51.0507C93.5574 50.4332 93.5153 49.8016 93.5153 49.156V32.735C93.5153 32.0613 93.5715 31.4297 93.6837 30.8402C93.796 30.2227 94.0346 29.7174 94.3995 29.3244C94.7645 28.9314 95.3118 28.7349 96.0416 28.7349C96.8276 28.7349 97.403 28.9314 97.768 29.3244C98.1329 29.7174 98.3715 30.2227 98.4837 30.8402C98.596 31.4297 98.6522 32.0613 98.6522 32.735V49.156C98.6522 49.8016 98.596 50.4332 98.4837 51.0507C98.3715 51.6683 98.1329 52.1735 97.768 52.5665C97.403 52.9595 96.8276 53.156 96.0416 53.156C95.2557 53.156 94.6802 52.9595 94.3153 52.5665ZM96.0416 59.5034C93.3852 59.5034 91.162 59.0387 89.4616 58.0121C87.7757 56.9942 86.5668 55.5238 85.8447 53.6403C85.1446 51.8139 84.8101 49.6795 84.8101 47.2613V34.5876C84.8101 32.1437 85.1439 30.0062 85.8468 28.2033C86.5706 26.3465 87.782 24.9051 89.4676 23.9174C91.1672 22.8932 93.3884 22.4297 96.0416 22.4297C98.7188 22.4297 100.954 22.8918 102.654 23.9153C104.367 24.901 105.595 26.342 106.321 28.2033C107.024 30.0062 107.357 32.1437 107.357 34.5876V47.2613C107.357 49.6795 107.023 51.8139 106.323 53.6403C105.599 55.5282 104.373 56.9983 102.66 58.0143C100.959 59.0402 98.7218 59.5034 96.0416 59.5034ZM102.147 57.156C103.663 56.2578 104.743 54.9665 105.389 53.2823C106.035 51.5981 106.357 49.5911 106.357 47.2613V34.5876C106.357 32.2297 106.035 30.2227 105.389 28.5665C104.743 26.9104 103.663 25.6472 102.147 24.7771C100.659 23.8788 98.6241 23.4297 96.0416 23.4297C93.4873 23.4297 91.4662 23.8788 89.9785 24.7771C88.4908 25.6472 87.4241 26.9104 86.7785 28.5665C86.1329 30.2227 85.8101 32.2297 85.8101 34.5876V47.2613C85.8101 49.5911 86.1329 51.5981 86.7785 53.2823C87.4241 54.9665 88.4908 56.2578 89.9785 57.156C91.4662 58.0543 93.4873 58.5034 96.0416 58.5034C98.6241 58.5034 100.659 58.0543 102.147 57.156Z" fill="url(#paint14_linear_1223_1604)"/>
<path fill-rule="evenodd" clip-rule="evenodd" d="M67.9127 58.9998V30.4945H62.7759V22.8945H82.5864V30.4945H77.4917V58.9998H67.9127ZM76.4917 29.4945H81.5864V23.8945H63.7759V29.4945H68.9127V57.9998H76.4917V29.4945Z" fill="url(#paint15_linear_1223_1604)"/>
<path fill-rule="evenodd" clip-rule="evenodd" d="M38.4014 58.9998V22.8945H48.2856C49.7956 22.8945 51.2282 23.0106 52.5814 23.2458C54.0131 23.4897 55.3035 23.9664 56.4367 24.6886C57.6215 25.415 58.5271 26.4624 59.1612 27.7885C59.8445 29.1296 60.1487 30.8296 60.1487 32.8208C60.1487 34.2902 59.9249 35.5989 59.435 36.7127C58.9784 37.786 58.2988 38.6726 57.3934 39.3453C57.296 39.42 57.1965 39.4918 57.095 39.5607C57.4388 39.7445 57.7649 39.9557 58.0724 40.1952C59.1277 40.9891 59.9047 42.054 60.4133 43.3528C60.951 44.654 61.2014 46.1777 61.2014 47.8945C61.2014 49.7466 60.9523 51.3973 60.4258 52.8247C59.9299 54.2169 59.1892 55.3951 58.1898 56.3301C57.1947 57.2609 55.9755 57.9344 54.5589 58.366C53.1795 58.7948 51.6171 58.9998 49.8856 58.9998H38.4014ZM54.2645 57.4103C55.5558 57.0173 56.6365 56.4138 57.5066 55.5998C58.3768 54.7858 59.0365 53.7472 59.4856 52.484C59.9628 51.1928 60.2014 49.663 60.2014 47.8945C60.2014 46.2665 59.9628 44.877 59.4856 43.7261C59.0365 42.5752 58.3628 41.663 57.4645 40.9893C57.0289 40.649 56.5438 40.3714 56.0092 40.1565C55.4414 39.9282 54.8177 39.7708 54.1382 39.684C54.8102 39.5569 55.4176 39.3533 55.9604 39.0734C56.2564 38.9207 56.5333 38.7453 56.7908 38.5472C57.5487 37.9858 58.1242 37.2419 58.5172 36.3156C58.9382 35.3612 59.1487 34.1963 59.1487 32.8208C59.1487 30.9121 58.854 29.3823 58.2645 28.2314C57.7031 27.0524 56.9172 26.1542 55.9066 25.5366C54.8961 24.891 53.7312 24.4559 52.4119 24.2314C51.1207 24.0068 49.7452 23.8945 48.2856 23.8945H39.4014V57.9998H49.8856C51.5417 57.9998 53.0014 57.8033 54.2645 57.4103ZM51.1486 50.8735L51.1551 50.8651C51.6122 50.2688 51.9172 49.2873 51.9172 47.7682C51.9172 46.5333 51.7807 45.6423 51.5584 45.0418C51.3535 44.4888 51.0452 44.1483 50.6441 43.939L50.6292 43.9313L50.6146 43.923C50.1739 43.6739 49.4948 43.5051 48.4961 43.5051H47.9382V51.7366H48.5382C50.0656 51.7366 50.8026 51.3454 51.1423 50.8821L51.1486 50.8735ZM46.9382 52.7366V42.5051H48.4961C49.5908 42.5051 50.461 42.6875 51.1066 43.0524C51.7522 43.3893 52.2154 43.9366 52.4961 44.6945C52.7768 45.4524 52.9172 46.477 52.9172 47.7682C52.9172 49.3963 52.5944 50.6314 51.9487 51.4735C51.3312 52.3156 50.1943 52.7366 48.5382 52.7366H46.9382ZM51.2467 35.1753L51.2527 35.1573C51.4338 34.6138 51.5382 33.9128 51.5382 33.0314C51.5382 32.2527 51.3917 31.6932 51.1647 31.2959L51.1509 31.2718L51.1385 31.247C50.933 30.8361 50.6228 30.5291 50.1699 30.3125L50.162 30.3087L50.1542 30.3047C49.7181 30.0867 49.0986 29.9472 48.2435 29.9472H47.9382V36.5366H48.4119C49.4807 36.5366 50.1415 36.3772 50.5115 36.1715C50.8793 35.9393 51.1149 35.6272 51.2414 35.1935L51.2467 35.1753ZM51.0224 37.0314C50.4329 37.3682 49.5628 37.5366 48.4119 37.5366H46.9382V28.9472H48.2435C49.1979 28.9472 49.9838 29.1016 50.6014 29.4103C51.247 29.7191 51.7242 30.1823 52.0329 30.7998C52.3698 31.3893 52.5382 32.1331 52.5382 33.0314C52.5382 33.9858 52.4259 34.7998 52.2014 35.4735C52.0049 36.1472 51.6119 36.6665 51.0224 37.0314Z" fill="url(#paint16_linear_1223_1604)"/>
<path fill-rule="evenodd" clip-rule="evenodd" d="M11.6777 58.9998L18.4976 22.8945H28.7467L35.4774 58.9998H26.4719L25.3351 51.7998H22.0286L20.8497 58.9998H11.6777ZM21.179 50.7998H26.1896L27.3264 57.9998H34.2738L27.9159 23.8945H19.3264L12.8843 57.9998H20.0001L21.179 50.7998ZM25.4738 46.2945L23.6633 32.9893L21.8527 46.2945H25.4738ZM22.998 45.2945H24.3285L23.6633 40.4058L22.998 45.2945Z" fill="url(#paint17_linear_1223_1604)"/>
<path d="M336.522 63V30.1377H325.372V21.1153C327.964 21.1153 330.116 20.993 331.827 20.7485C333.539 20.4551 334.957 19.8194 336.082 18.8413C337.255 17.8144 338.282 16.2006 339.162 14H347.598V63H336.522Z" fill="url(#paint18_linear_1223_1604)"/>
<path d="M321.4 55.166V62.3586H304.123V55.166H321.4ZM288.573 62.3586L281.23 49.2427V62.3586H270V32.7422H282.526L289.869 45.858V32.7422H301.099V62.3586H288.573ZM310.17 44.1657C310.17 45.858 311.466 47.1273 312.762 47.1273C314.057 47.1273 315.353 45.858 315.353 44.1657C315.353 42.4733 314.057 41.204 312.762 41.204C311.466 41.204 310.17 42.4733 310.17 44.1657ZM303.259 44.1657C303.259 39.0886 307.146 35.2807 312.762 35.2807C318.377 35.2807 322.264 39.0886 322.264 44.1657C322.264 49.2428 318.377 53.0506 312.762 53.0506C307.146 53.0506 303.259 49.2428 303.259 44.1657Z" fill="url(#paint19_linear_1223_1604)"/>
</g>
<defs>
<linearGradient id="paint0_linear_1223_1604" x1="178" y1="57.9998" x2="178" y2="23.4998" gradientUnits="userSpaceOnUse">
<stop/>
<stop offset="1" stop-color="#858383"/>
</linearGradient>
<linearGradient id="paint1_linear_1223_1604" x1="178" y1="57.9998" x2="178" y2="23.4998" gradientUnits="userSpaceOnUse">
<stop/>
<stop offset="1" stop-color="#858383"/>
</linearGradient>
<linearGradient id="paint2_linear_1223_1604" x1="178" y1="57.9981" x2="178" y2="23.4981" gradientUnits="userSpaceOnUse">
<stop/>
<stop offset="1" stop-color="#858383"/>
</linearGradient>
<linearGradient id="paint3_linear_1223_1604" x1="178" y1="57.9998" x2="178" y2="23.4998" gradientUnits="userSpaceOnUse">
<stop/>
<stop offset="1" stop-color="#858383"/>
</linearGradient>
<linearGradient id="paint4_linear_1223_1604" x1="178" y1="57.9998" x2="178" y2="23.4998" gradientUnits="userSpaceOnUse">
<stop/>
<stop offset="1" stop-color="#858383"/>
</linearGradient>
<linearGradient id="paint5_linear_1223_1604" x1="179" y1="22.9998" x2="179" y2="61.9998" gradientUnits="userSpaceOnUse">
<stop stop-color="#7C7B7B"/>
<stop offset="1" stop-color="#0A0A0A"/>
</linearGradient>
<linearGradient id="paint6_linear_1223_1604" x1="179" y1="22.9998" x2="179" y2="61.9998" gradientUnits="userSpaceOnUse">
<stop stop-color="#7C7B7B"/>
<stop offset="1" stop-color="#0A0A0A"/>
</linearGradient>
<linearGradient id="paint7_linear_1223_1604" x1="179" y1="22.9981" x2="179" y2="61.9981" gradientUnits="userSpaceOnUse">
<stop stop-color="#7C7B7B"/>
<stop offset="1" stop-color="#0A0A0A"/>
</linearGradient>
<linearGradient id="paint8_linear_1223_1604" x1="179" y1="22.9998" x2="179" y2="61.9998" gradientUnits="userSpaceOnUse">
<stop stop-color="#7C7B7B"/>
<stop offset="1" stop-color="#0A0A0A"/>
</linearGradient>
<linearGradient id="paint9_linear_1223_1604" x1="179" y1="22.9998" x2="179" y2="61.9998" gradientUnits="userSpaceOnUse">
<stop stop-color="#7C7B7B"/>
<stop offset="1" stop-color="#0A0A0A"/>
</linearGradient>
<linearGradient id="paint10_linear_1223_1604" x1="59.5002" y1="56.9981" x2="59.5002" y2="22.4981" gradientUnits="userSpaceOnUse">
<stop stop-color="#FC0404"/>
<stop offset="1" stop-color="#FF6F6F"/>
</linearGradient>
<linearGradient id="paint11_linear_1223_1604" x1="59.5002" y1="56.9998" x2="59.5002" y2="22.4998" gradientUnits="userSpaceOnUse">
<stop stop-color="#FC0404"/>
<stop offset="1" stop-color="#FF6F6F"/>
</linearGradient>
<linearGradient id="paint12_linear_1223_1604" x1="59.5001" y1="56.9998" x2="59.5001" y2="22.4998" gradientUnits="userSpaceOnUse">
<stop stop-color="#FC0404"/>
<stop offset="1" stop-color="#FF6F6F"/>
</linearGradient>
<linearGradient id="paint13_linear_1223_1604" x1="59.5001" y1="56.9998" x2="59.5001" y2="22.4998" gradientUnits="userSpaceOnUse">
<stop stop-color="#FC0404"/>
<stop offset="1" stop-color="#FF6F6F"/>
</linearGradient>
<linearGradient id="paint14_linear_1223_1604" x1="60.5002" y1="8.99811" x2="60.5002" y2="68.9981" gradientUnits="userSpaceOnUse">
<stop stop-color="#FD6E6E"/>
<stop offset="1" stop-color="#FC0E0E"/>
</linearGradient>
<linearGradient id="paint15_linear_1223_1604" x1="60.5002" y1="8.9998" x2="60.5002" y2="68.9998" gradientUnits="userSpaceOnUse">
<stop stop-color="#FD6E6E"/>
<stop offset="1" stop-color="#FC0E0E"/>
</linearGradient>
<linearGradient id="paint16_linear_1223_1604" x1="60.5001" y1="8.9998" x2="60.5001" y2="68.9998" gradientUnits="userSpaceOnUse">
<stop stop-color="#FD6E6E"/>
<stop offset="1" stop-color="#FC0E0E"/>
</linearGradient>
<linearGradient id="paint17_linear_1223_1604" x1="60.5001" y1="8.9998" x2="60.5001" y2="68.9998" gradientUnits="userSpaceOnUse">
<stop stop-color="#FD6E6E"/>
<stop offset="1" stop-color="#FC0E0E"/>
</linearGradient>
<linearGradient id="paint18_linear_1223_1604" x1="338.651" y1="72.5939" x2="338.651" y2="12.2329" gradientUnits="userSpaceOnUse">
<stop stop-color="#FC0404"/>
<stop offset="1" stop-color="#FF6F6F"/>
</linearGradient>
<linearGradient id="paint19_linear_1223_1604" x1="295.619" y1="68.3876" x2="295.619" y2="33.7206" gradientUnits="userSpaceOnUse">
<stop stop-color="#FC0404"/>
<stop offset="1" stop-color="#FF6F6F"/>
</linearGradient>
<clipPath id="clip0_1223_1604">
<rect width="360" height="77" fill="white"/>
</clipPath>
</defs>
</svg>
